<?xml version="1.0" standalone="no"?>
<!DOCTYPE svg PUBLIC "-//W3C//DTD SVG 1.1//EN" "http://www.w3.org/Graphics/SVG/1.1/DTD/svg11.dtd" >
<svg xmlns="http://www.w3.org/2000/svg">
  <metadata>Created by iconfont</metadata>
  <defs>
  <font id="iconfont" horiz-adv-x="1024">
    <font-face
      font-family="iconfont"
      font-weight="400"
      font-stretch="normal"
      units-per-em="1024"
      ascent="896"
      descent="-128"
    />
      <missing-glyph />
      
      <glyph glyph-name="lixian" unicode="&#59180;" d="M512 896a512 512 0 1 0 0-1024A512 512 0 0 0 512 896z m218.496-256l-5.888-0.448a37.376 37.376 0 0 1-20.608-10.56l-192-192-192 192a37.44 37.44 0 0 1-64-26.496l0.448-5.888c1.28-7.744 4.928-14.976 10.56-20.608l192-192-192-192a37.44 37.44 0 0 1 26.496-64l5.888 0.448A37.376 37.376 0 0 1 320 139.008l191.936 192 192-192a37.44 37.44 0 0 1 53.056 0l4.352 5.184a37.376 37.376 0 0 1-4.352 47.808l-192 192 192 192a37.44 37.44 0 0 1-26.496 64z"  horiz-adv-x="1024" />
      
      <glyph glyph-name="zaixian" unicode="&#59181;" d="M512 896a512 512 0 1 1 0-1024A512 512 0 0 1 512 896z m288.064-389.76L498.112 204.16a40.512 40.512 0 0 0-28.864-11.904 40.32 40.32 0 0 0-28.8 11.904L267.968 376.448a40.64 40.64 0 1 0 57.6 57.6L469.12 290.496l273.28 273.28a40.64 40.64 0 0 0 57.6 0c16-15.936 16-41.728 0.064-57.6z"  horiz-adv-x="1024" />
      
      <glyph glyph-name="gaojisousuo1" unicode="&#59179;" d="M7.27552 226.24a50.56 50.56 0 0 0 67.264 15.488l361.856-208.192 4.16-3.968c1.344-1.28 3.584-1.28 4.928 0l3.968 3.84 203.776 119.68c17.92-27.136 41.856-50.304 70.208-67.84l-213.504-125.44A104.448 104.448 0 0 0 442.98752-64c-23.808 0-47.68 7.872-66.688 23.68l-352.64 202.88a44.928 44.928 0 0 0-16.384 63.68z m803.008 188.16c83.008 0 150.4-63.744 150.4-142.336 0-27.52-8.32-53.12-22.592-74.88l75.712-71.68a32.32 32.32 0 0 0 0-47.488 36.928 36.928 0 0 0-50.24 0l-76.032 71.936c-22.592-12.8-49.024-20.224-77.248-20.224-83.072 0-150.4 63.744-150.4 142.336 0 78.592 67.328 142.336 150.4 142.336zM7.21152 436.416a50.56 50.56 0 0 0 67.264 15.488l361.856-208.256 4.096-3.904c1.408-1.28 3.584-1.28 4.992 0l3.968 3.776 187.52 110.208a207.488 207.488 0 0 1-15.808-118.4l-111.232-65.344a104.448 104.448 0 0 0-66.944-23.808c-23.808 0-47.68 7.872-66.688 23.68l-352.64 202.88a44.928 44.928 0 0 0-16.384 63.68z m803.008-78.272c-50.112 0-90.88-38.592-90.88-86.08 0-47.424 40.768-86.016 90.88-86.016 50.112 0 90.88 38.592 90.88 86.016 0 47.488-40.768 86.08-90.88 86.08z m-389.12 459.328a54.592 54.592 0 0 0 74.112 0l356.8-188.8c20.48-19.392 20.48-50.816 0-70.208L483.24352 358.272a54.592 54.592 0 0 0-74.24 0L52.33152 547.072a47.808 47.808 0 0 0 0 70.208z"  horiz-adv-x="1024" />
      
      <glyph glyph-name="manyou" unicode="&#59178;" d="M755.628215-33.833566c16.396188-10.526736 37.00307-12.759679 55.440807-6.124646a60.608477 60.608477 0 0 1 37.768651 40.001595L1078.065314 789.42095a83.448303 83.448303 0 0 1-58.694526 103.353403 87.276207 87.276207 0 0 1-59.332509-4.465888L96.654572 500.031421a60.353284 60.353284 0 0 1-35.790901-50.273137 59.779098 59.779098 0 0 1 27.624706-54.866622l180.230471-115.79409a38.661829 38.661829 0 0 1 38.087643-2.551936 36.811675 36.811675 0 0 1 20.989673 31.006021 36.556482 36.556482 0 0 1-17.480761 33.047569L150.628015 443.187049l841.118067 378.260696a9.824953 9.824953 0 0 0 6.698832 0.446589 10.016348 10.016348 0 0 0 6.890227-12.376889L781.27517 37.875832 621.396387 140.718848a48.040193 48.040193 0 0 1-64.627776-11.866501l-87.531401-120.578971v241.98732l331.368875 266.039316a36.365086 36.365086 0 0 1-10.526736 63.28801 38.59803 38.59803 0 0 1-37.577256-6.443638L410.861677 298.811276a45.615854 45.615854 0 0 1-17.225567-35.535707v-342.087005c0-20.032697 13.397663-37.768651 32.983771-43.829499a47.912596 47.912596 0 0 1 52.888871 17.353164l123.130907 169.831333 153.116153-98.377128h-0.063799z"  horiz-adv-x="1084" />
      
      <glyph glyph-name="shang" unicode="&#59176;" d="M512 576l256-384H256z"  horiz-adv-x="1024" />
      
      <glyph glyph-name="xia" unicode="&#59177;" d="M512 192l256 384H256z"  horiz-adv-x="1024" />
      
      <glyph glyph-name="gengduocaozuo" unicode="&#59169;" d="M436.736 324.032c41.024 0 74.88-31.232 78.912-71.232l0.384-8.064v-229.44a79.36 79.36 0 0 0-71.232-78.912L436.736-64H207.296a79.36 79.36 0 0 0-78.912 71.232L128 15.296v229.44c0 41.024 31.232 74.88 71.232 78.912l8.064 0.384h229.44z m443.968 0c41.024 0 74.88-31.232 78.912-71.232l0.384-8.064v-229.44a79.36 79.36 0 0 0-71.232-78.912l-8.064-0.384h-229.44a79.36 79.36 0 0 0-78.912 71.232l-0.384 8.064v229.44c0 41.024 31.232 74.88 71.232 78.912l8.064 0.384h229.44z m-482.56-70.656h-152.32a47.232 47.232 0 0 1-46.72-40.832l-0.512-6.4v-152.32c0-23.872 17.792-43.648 40.896-46.72l6.4-0.512h152.32a47.232 47.232 0 0 1 46.72 40.896l0.448 6.4v152.32a47.232 47.232 0 0 1-47.232 47.168z m443.968 0h-152.32a47.232 47.232 0 0 1-46.72-40.832l-0.448-6.4v-152.32c0-23.872 17.728-43.648 40.832-46.72l6.4-0.512h152.32a47.232 47.232 0 0 1 46.72 40.896l0.512 6.4v152.32a47.232 47.232 0 0 1-47.296 47.168zM436.736 768c41.024 0 74.88-31.232 78.912-71.232l0.384-8.064v-229.44A79.36 79.36 0 0 0 444.8 380.352l-8.064-0.384H207.296A79.36 79.36 0 0 0 128.384 451.2L128 459.264V688.704c0 41.024 31.232 74.88 71.232 78.912L207.296 768h229.44z m329.28 0a193.984 193.984 0 1 0 0-388.032 193.984 193.984 0 0 0 0 388.032zM398.08 697.408h-152.32a47.232 47.232 0 0 1-46.72-40.896l-0.512-6.4v-152.32c0-23.872 17.792-43.648 40.896-46.72l6.4-0.448h152.32a47.232 47.232 0 0 1 46.72 40.832l0.448 6.4v152.32a47.232 47.232 0 0 1-47.232 47.232z m367.872 0a123.392 123.392 0 1 1 0-246.784 123.392 123.392 0 0 1 0 246.784z"  horiz-adv-x="1024" />
      
      <glyph glyph-name="bangdingcaozuo" unicode="&#59170;" d="M273.6 502.592a9.344 9.344 0 0 0 13.184 0l46.464-46.464a9.344 9.344 0 0 0 0-13.184L197.632 307.392c-62.72-62.72-69.376-168.576 0-238.08 69.312-69.376 175.232-62.72 238.08 0l135.552 135.68a9.344 9.344 0 0 0 13.184 0l46.144-46.272a9.344 9.344 0 0 0 0-13.184l-135.552-135.552a252.352 252.352 0 0 0-356.992 0 252.224 252.224 0 0 0 0 356.992z m339.776 44.288a9.344 9.344 0 0 0 13.184 0l46.08-46.144a9.344 9.344 0 0 0 0-13.184L408.448 223.36a9.344 9.344 0 0 0-13.184 0l-46.144 46.208a9.344 9.344 0 0 0 0 13.184zM529.088 757.952a252.224 252.224 0 0 0 357.056 0 252.608 252.608 0 0 0 0-357.12l-135.616-135.552a9.344 9.344 0 0 0-13.184 0l-46.4 46.4a9.344 9.344 0 0 0 0 13.184l135.552 135.616c62.784 62.72 69.44 168.576 0 238.016-69.312 69.376-175.232 62.72-238.016 0L452.928 562.88a9.344 9.344 0 0 0-13.184 0l-46.336 46.336a9.344 9.344 0 0 0 0 13.184z"  horiz-adv-x="1024" />
      
      <glyph glyph-name="shanchushebei" unicode="&#59171;" d="M921.408 705.536c21.312 0 38.592-17.216 38.592-38.4a38.528 38.528 0 0 0-27.328-36.736l-5.504-1.28-5.824-0.512h-37.12v-521.664a171.52 171.52 0 0 0-142.528-168.448l-9.856-1.408-9.6-0.832-9.984-0.256H311.744a171.904 171.904 0 0 0-170.88 151.488l-0.832 9.6-0.32 9.856V628.608h-37.056a38.72 38.72 0 0 0-37.12 27.776l-1.152 5.504L64 667.072c0 17.024 11.2 31.744 27.328 36.736l5.504 1.28 5.824 0.448h818.752z m-114.432-76.928H217.152v-521.664c0-46.272 33.92-85.184 78.656-92.672l8-1.024 8-0.32h400.512c46.592 0 85.76 33.728 93.312 78.144l1.024 7.936 0.32 8.256V628.608z m-400-127.68c19.52 0 35.712-14.528 38.272-33.28l0.32-5.248v-241.92a38.656 38.656 0 1 0-76.992-5.248l-0.32 5.312v241.92c0 21.184 17.28 38.4 38.656 38.4z m209.28 0c19.52 0 35.776-14.528 38.336-33.28l0.32-5.248v-241.92a38.656 38.656 0 1 0-76.992-5.248l-0.32 5.312v241.92c0 21.184 17.28 38.4 38.656 38.4zM643.008 832c21.312 0 38.656-17.28 38.656-38.464a38.528 38.528 0 0 0-33.408-38.144l-5.248-0.32h-256a38.592 38.592 0 0 0-38.72 38.4c0 19.52 14.592 35.648 33.472 38.208L387.008 832h256z"  horiz-adv-x="1024" />
      
      <glyph glyph-name="kexinyushebei" unicode="&#59172;" d="M499.84 894.272a43.2 43.2 0 0 0 18.24 1.28l6.016-1.28 405.12-118.464c18.88-5.504 31.552-23.04 30.72-42.624l-3.968-97.792-3.264-86.72-5.056-155.392-1.792-80.32-0.448-49.28c0-86.272-71.744-174.08-192.768-260.096-43.648-31.04-91.328-59.968-140.288-86.4l-13.696-7.296-25.664-13.312-23.04-11.328-20.096-9.344a43.072 43.072 0 0 0-37.056 0.64l-20.032 10.176-35.456 19.072-26.752 15.104a1537.92 1537.92 0 0 0-139.776 90.24C150.08 99.264 78.592 184.96 78.592 263.68l-0.32 44.032-1.856 90.24-3.328 108.48-9.024 226.56a42.496 42.496 0 0 0 24.576 40.448l6.08 2.24L499.84 894.272zM512 809.28l-360.96-105.6 5.632-137.6 4.48-132.48 2.304-93.056 0.768-59.392v-17.408c0-46.336 60.096-112.384 147.968-178.752l27.136-19.904 14.144-9.92 29.312-19.712c29.952-19.584 61.696-38.784 94.272-57.088l32.96-17.92c187.264 88.896 349.696 217.344 349.696 303.296l0.32 40.896 1.28 67.136 2.944 100.48 5.888 162.176 2.752 69.312L512 809.28z m148.032-277.248l8.832-0.256 50.048-52.608-0.256-8.96-249.984-233.792-8.704 0.064L301.76 387.84l-0.192 8.96 50.56 52.032 8.96 0.192 103.872-99.264 195.072 182.4z"  horiz-adv-x="1024" />
      
      <glyph glyph-name="laibinxiangguan" unicode="&#59173;" d="M620.416 639.36c124.096 1.92 227.584-99.904 227.584-224a223.488 223.488 0 0 0-83.136-174.144 337.728 337.728 0 0 0 96.768-67.648A333.056 333.056 0 0 0 960-54.848a8.96 8.96 0 0 0-8.96-9.152h-62.72a8.96 8.96 0 0 0-8.96 8.64 254.144 254.144 0 0 1-74.688 171.904A253.824 253.824 0 0 1 624 191.36a253.824 253.824 0 0 1-180.672-74.88 253.12 253.12 0 0 1-74.688-171.84 8.96 8.96 0 0 0-8.96-8.64h-62.72a8.96 8.96 0 0 0-8.96 9.152 333.824 333.824 0 0 0 98.112 228.416c28.544 28.544 61.248 51.2 96.768 67.648A224.128 224.128 0 0 0 620.416 639.36zM403.84 832a224.384 224.384 0 0 0 196.736-123.136 8.96 8.96 0 0 0-7.04-12.992c-21.376-2.24-42.24-7.04-61.952-13.888a8.96 8.96 0 0 0-10.432 3.584 143.168 143.168 0 0 1-119.168 65.856 142.592 142.592 0 0 1-104.32-43.328c-25.216-25.728-39.68-59.904-40.704-95.872a142.848 142.848 0 0 1 84.672-134.912 9.024 9.024 0 0 0 5.056-9.856 285.056 285.056 0 0 1-3.2-81.664 8.96 8.96 0 0 0-6.784-9.728A252.8 252.8 0 0 1 219.52 309.12a253.12 253.12 0 0 1-74.688-171.904 8.96 8.96 0 0 0-8.96-8.64H72.96a8.96 8.96 0 0 0-8.96 9.152 333.12 333.12 0 0 0 98.368 228.48c28.416 28.48 61.248 51.2 96.832 67.648a223.488 223.488 0 0 0-83.072 174.144C176.128 732.16 279.616 833.92 403.84 832z m218.688-273.28a143.552 143.552 0 0 1-99.904-244.736 142.08 142.08 0 0 1 101.376-41.984c38.272 0 74.368 14.912 101.44 41.984 27.136 27.136 42.048 63.04 42.048 101.376 0 38.72-15.232 75.136-43.008 102.4-27.136 26.496-64 41.28-101.952 40.96z"  horiz-adv-x="1024" />
      
      <glyph glyph-name="xiaozhushoucaozuo" unicode="&#59174;" d="M500.672786 894.329076A40.381199 40.381199 0 0 0 517.7596 895.544992l5.63161-1.279912 407.971697-119.159733c17.598779-5.119645 29.437958-21.502508 28.606015-39.677247l-4.03172-98.361177-5.119645-139.95829-4.479689-154.677269-0.895938-56.50808-0.127991-22.974406c0-85.498069-71.675028-173.171986-192.754628-259.182019-43.836959-31.101842-91.705638-60.155827-140.918224-86.713985l-27.006126-14.207014-35.837514-17.854761-20.094606-9.407348a40.189212 40.189212 0 0 0-34.557602 0.639956l-23.742353 12.159156-27.774073 14.910966-31.101843 17.470788a1545.748764 1545.748764 0 0 0-140.53425 90.553718C150.169102 99.632208 78.750057 185.130277 78.750057 263.012873l-0.319978 44.348924-1.919867 90.873695-3.327769 109.176426-9.08737 228.016182a39.549256 39.549256 0 0 0 22.910411 37.629389l5.695605 2.111854L500.672786 894.329076zM512 815.166568L145.177448 710.469831l5.823596-143.41405 4.47969-133.302753 2.367835-93.561509 0.767947-59.707858v-17.534783c0-54.844195 80.186437-135.222619 192.306659-212.145282l29.949922-19.966615c15.358934-9.919312 31.101842-19.710633 47.228723-29.373962l32.701732-19.006682c16.638846-9.407347 33.469678-18.558712 50.556492-27.518091 189.746836 89.977758 353.959444 219.760754 353.959444 308.010632l0.191987 27.838069 0.767947 49.596559 2.8798 99.89707 3.519756 91.96162 3.263773 73.850876 5.183641 101.112986L512 815.230563z m41.597114-146.549833l2.943796-2.047858 153.141376-412.963351-74.490832 2.047858-34.17363 100.409034-167.988345 2.047858-40.189212-104.50475-74.426837 4.287703L477.442397 668.616735h76.026726z m-37.885372-81.274362L450.052298 417.306169l127.99112-4.287702-62.331676 174.195915z"  horiz-adv-x="1024" />
      
      <glyph glyph-name="genggaixinxi" unicode="&#59175;" d="M612.288 768l6.272-6.272v-68.352l-6.272-6.272H208.896v-670.144h670.144V420.288l6.4 6.272h68.288l6.272-6.272v-409.664a74.88 74.88 0 0 0-59.392-72.96l-7.488-1.28-7.68-0.384H202.496a74.88 74.88 0 0 0-72.96 59.392l-1.216 7.488-0.384 7.68V693.504c0 35.456 25.216 65.728 59.392 72.96l7.488 1.216 7.68 0.384h409.728z m287.488-11.84l48.32-48.32v-8.96l-477.888-477.824h-8.96l-48.256 48.256v8.96l477.888 477.888h8.96z"  horiz-adv-x="1024" />
      
      <glyph glyph-name="yidongzhongduan" unicode="&#59167;" d="M684.041721 896c107.957779 0 198.135782-72.718006 210.287428-167.500843l1.023296-10.616701 0.383736-10.872525v-645.316345c0-96.701518-81.863719-176.966336-187.583036-187.774905l-11.831866-0.895385-12.215602-0.31978H339.894323c-107.893823 0-198.071826 72.718006-210.223472 167.500844l-1.023296 10.616701-0.383736 10.872525V707.009931C128.263819 803.711448 210.127537 883.976266 315.846855 894.720879l11.831866 0.895385L339.958279 896h344.211354zM405.19343 822.450565H339.958279c-65.171195 0-119.597777-42.466804-129.191181-97.852726l-1.087253-8.825932-0.383736-8.761976v-645.316345c0-57.240647 47.711199-105.591406 110.579976-114.097558l10.041097-1.023297 9.977141-0.31978h344.211354c65.107239 0 119.597777 42.466804 129.127225 97.852726l1.087253 8.825933 0.383736 8.761976V707.009931c0 57.240647-47.711199 105.591406-110.579976 114.097558l-10.041097 1.023296-9.977141 0.31978H618.614702l-1.343076-5.116482a38.949222 38.949222 0 0 0-25.4545-23.024171l-6.331647-1.470989-6.587471-0.511648H445.101992a40.420211 40.420211 0 0 0-38.309662 24.81494l-1.534944 5.30835z m173.704578-779.43214c22.256699 0 40.548123-16.244832 40.548123-36.774718 0-15.989008-11.320217-29.739554-27.565049-34.79208l-6.331647-1.470989-6.651427-0.511648H445.101992c-22.256699 0-40.548123 16.308788-40.548123 36.774717 0 16.052964 11.320217 29.739554 27.565049 34.792081l6.331647 1.470989 6.651427 0.511648h133.796016z"  horiz-adv-x="1024" />
      
      <glyph glyph-name="liuliangfenxi" unicode="&#59165;" d="M985.152-43.584c21.504-0.256 38.848-19.072 38.848-42.24 0-23.04-17.28-41.92-38.848-42.176H38.848C17.344-127.744 0-108.928 0-85.76c0 23.04 17.28 41.92 38.848 42.176h946.304zM240.896 596.864c30.144-0.064 54.528-26.304 54.528-58.688v-446.08c0-32.32-24.32-58.624-54.528-58.688H78.72c-30.144 0.064-54.528 26.368-54.528 58.688V538.24c0 32.384 24.384 58.624 54.528 58.688h162.176z m702.528-169.792c30.08-0.064 54.528-26.304 54.528-58.688v-276.288c0-32.32-24.384-58.624-54.528-58.688h-162.176c-30.144 0.064-54.528 26.368-54.528 58.688V368.384c0 32.384 24.32 58.624 54.528 58.688h162.176zM592.128 896c30.208-0.064 54.592-26.368 54.528-58.688v-745.216c0-32.32-24.32-58.624-54.528-58.688H429.952c-30.08 0.064-54.528 26.368-54.464 58.688V837.312c0 32.32 24.32 58.624 54.464 58.688h162.176zM217.664 513.152H101.952v-396.032h115.712V513.216z m702.464-169.792H804.48v-226.176h115.648V343.36zM568.96 812.16H453.248v-695.04h115.648V812.16z"  horiz-adv-x="1024" />
      
      <glyph glyph-name="chaxuntongji1" unicode="&#59166;" d="M487.868341 896c65.599508 0 129.535028-12.927903 189.886576-38.399712 58.239563-24.639815 110.271173-59.711552 155.070837-104.511216a487.548343 487.548343 0 0 0 49.151631-632.379257l-13.759897-17.983865-6.783949-7.99994 150.142874-150.078875c13.3119-13.3119 15.99988-33.151751 8.06394-49.151631l-3.455974-5.759957-4.479967-5.31196a42.495681 42.495681 0 0 0-48.639635-8.127939l-6.015955 3.455974-5.695957 4.671965-150.078875 150.142874-8.319937-7.039947a486.460352 486.460352 0 0 0-74.68744-49.471629l-20.03185-10.111925-20.479846-9.21593a483.836371 483.836371 0 0 0-189.886576-38.399712 486.140354 486.140354 0 0 0-189.886576 38.399712A487.548343 487.548343 0 0 0 38.399712 598.082234 487.548343 487.548343 0 0 0 487.868341 896z m0-85.439359a399.997 399.997 0 0 1-284.669865-117.887116 399.997 399.997 0 0 1-117.887116-284.669865c0-107.519194 41.855686-208.638435 117.887116-284.669865a399.997 399.997 0 0 1 284.669865-117.887116 399.997 399.997 0 0 1 284.669865 117.887116 399.997 399.997 0 0 1 117.887116 284.669865 399.997 399.997 0 0 1-117.887116 284.669865 399.997 399.997 0 0 1-284.669865 117.887116z m-1.919986-338.237463c18.559861 0 34.62374-12.03191 40.447697-29.887776l1.535989-6.207954 0.511996-6.463951v-236.862224a42.559681 42.559681 0 1 0-83.071377-12.671905l-1.535989 6.143954-0.511996 6.527951v236.798224c0 23.551823 19.071857 42.62368 42.559681 42.623681z m196.222529 193.662547c18.559861 0 34.68774-12.03191 40.511696-29.887776l1.535988-6.207953 0.511997-6.527951v-430.460772a42.559681 42.559681 0 1 0-83.071377-12.671905l-1.535989 6.143954-0.511996 6.527951V623.362045c0 23.551823 19.007857 42.62368 42.559681 42.62368zM289.597828 571.778432c18.62386 0 34.751739-12.03191 40.511696-29.887776l1.535989-6.207954 0.575995-6.527951v-336.253478a42.559681 42.559681 0 1 0-83.071377-12.671905l-1.599988 6.143954-0.511996 6.527951V529.154751c0 23.551823 19.071857 42.62368 42.559681 42.623681z"  horiz-adv-x="1024" />
      
      <glyph glyph-name="MSEP" unicode="&#59168;" d="M522.765725 894.500439l417.499206-120.033155c16.497448-4.664796 27.647447-19.796937 26.907906-36.635712-0.113776-3.413265-14.961479-340.359415-14.961479-475.581599 0-192.053048-380.977269-367.494872-424.382623-386.893596a38.399232 38.399232 0 0 0-32.596682 0.568878c-43.291579 21.162243-423.131093 211.906873-423.131092 386.26783C72.100961 416.415778 57.19637 734.532083 57.025706 737.831572a36.692599 36.692599 0 0 0 26.907907 36.749487L501.489706 894.500439a38.683671 38.683671 0 0 0 21.276019 0zM512.127716 821.172128L133.539732 712.402748c3.640816-82.373464 13.766836-321.870896 13.766836-450.209663 0-94.263004 217.652536-237.961463 365.503801-312.825743 147.396163 68.720403 364.081607 207.298965 364.081607 312.882631 0 45.28265 1.649745 112.80841 3.811479 182.951007l1.422194 42.210712c3.071939 91.475504 6.769642 180.789273 8.59005 224.991056L512.127716 821.172128zM471.396086 497.765262c10.638009 0 20.024488-0.796429 28.216324-2.389285 8.134948-1.592857 14.790815-3.413265 19.796938-5.575v-39.821425l-2.559949 0.853316a186.93315 186.93315 0 0 1-18.20408 4.55102 134.368868 134.368868 0 0 1-25.599488 2.559949c-10.638009 0-18.317856-1.592857-23.03954-4.778571-4.778571-3.185714-7.167857-9.500254-7.167856-18.772958 0-3.640816 0.341327-6.712755 1.080867-9.272704a14.449489 14.449489 0 0 1 4.437245-6.82653 32.994896 32.994896 0 0 1 9.670917-5.631887c4.266581-1.706633 9.784693-3.470153 16.611224-5.404337 11.149999-3.185714 20.252039-6.769642 27.363008-10.694897s12.685969-8.59005 16.724999-13.994387c4.03903-5.404336 6.82653-11.775764 8.248724-19.114284 1.422194-7.395408 2.161735-16.213009 2.161734-26.623467 0-21.674233-5.575-38.171681-16.724999-49.549232-11.149999-11.37755-29.581631-17.066325-55.294894-17.066325a182.040804 182.040804 0 0 0-31.1176 2.559949 167.989529 167.989529 0 0 0-23.323978 5.404336v42.381375l3.071939-1.251531c2.218622-0.796429 4.664796-1.535969 7.395408-2.27551 4.152806-1.02398 8.533163-1.934184 13.254846-2.673724 4.664796-0.739541 9.500254-1.365306 14.392601-1.934184 4.949234-0.51199 9.841581-0.796429 14.733927-0.796428 6.086989 0 11.263775 0.455102 15.473468 1.308418a23.210202 23.210202 0 0 1 10.239796 4.437245 17.066325 17.066325 0 0 1 5.574999 8.305611 41.528058 41.528058 0 0 1 1.592857 12.40153 37.830355 37.830355 0 0 1-1.365306 10.808673 18.317856 18.317856 0 0 1-4.949234 7.964285 34.530865 34.530865 0 0 1-10.239795 6.428316 156.213765 156.213765 0 0 1-17.407652 6.030101 137.497694 137.497694 0 0 0-24.973723 9.102041 42.096936 42.096936 0 0 0-24.120406 29.467855 110.760451 110.760451 0 0 0-2.389286 25.201273c0 23.323978 5.973214 39.992089 17.919642 49.83367 11.946428 9.898469 28.785202 14.847703 50.516323 14.847703z m-233.979321-3.185714l31.003825-124.584175h1.592857l32.36913 124.584175H367.06395v-221.179576h-40.390303V447.419603h-1.706633l-36.066834-132.264022h-40.959181L212.329267 447.419603H210.622635v-174.019631H170.801209V494.579548h66.558669z m441.335174 0v-42.096935h-73.385199v-45.510201h67.980862v-40.504079H605.423627v-50.971425h77.082903v-42.096936H564.464447V494.579548h114.344379z m101.089533 0l10.069132-0.284438c9.670918-0.568878 18.033417-1.877296 25.144386-3.982143 9.443367-2.901275 16.95255-7.395408 22.641325-13.425509 5.688775-6.030102 9.670918-13.823724 12.117091-23.26709 2.446173-9.443367 3.640816-20.877805 3.640816-34.246427 0-14.449489-1.365306-26.623468-4.03903-36.521936a54.726017 54.726017 0 0 0-12.970407-24.063519 50.061221 50.061221 0 0 0-22.868876-13.197958c-9.386479-2.673724-20.593366-3.982143-33.734437-3.982142h-22.925763v-68.208414h-40.959181V494.579548h63.884944z m-5.404336-38.228568h-17.521427v-75.88826h17.521427c7.054081 0 12.856632 0.568878 17.521427 1.76352a24.006631 24.006631 0 0 1 11.491326 6.257653 25.144386 25.144386 0 0 1 6.31454 11.605101c1.251531 4.778571 1.877296 10.86556 1.877296 18.317856 0 6.997193-0.568878 12.970407-1.877296 17.862753a25.201274 25.201274 0 0 1-6.31454 11.775765 25.144386 25.144386 0 0 1-11.605101 6.371428 68.151526 68.151526 0 0 1-17.407652 1.934184z"  horiz-adv-x="1024" />
      
      <glyph glyph-name="bianji1" unicode="&#59163;" d="M585.6 832l6.784-6.784v-73.6l-6.784-6.72H151.168v-721.728H872.96V457.6l6.848 6.784h73.6l6.72-6.784v-441.152a80.64 80.64 0 0 0-64-78.592l-8-1.408-8.32-0.384H144.32a80.64 80.64 0 0 0-78.592 64l-1.28 8-0.448 8.32V751.744a80.704 80.704 0 0 0 64 78.464l8.064 1.28 8.32 0.448H585.6V832z m309.632-12.8l52.032-51.968v-9.664l-514.688-514.56h-9.6l-51.968 52.032v9.6l514.624 514.56h9.6z"  horiz-adv-x="1024" />
      
      <glyph glyph-name="shanchu" unicode="&#59164;" d="M979.166823 751.587284c24.367248 0 44.129661-19.634501 44.129661-43.937793 0-19.442633-12.791206-36.199113-31.210543-41.955156l-6.331647-1.470989-6.651427-0.511648h-42.338892v-595.750421a195.897321 195.897321 0 0 0-162.832053-192.379739l-11.192305-1.598901-11.000438-0.959341-11.384173-0.31978H282.941478a196.345013 196.345013 0 0 0-195.193805 173.001062l-0.895384 10.936481-0.31978 11.320218V663.711698H44.129661a44.193617 44.193617 0 0 0-42.466804 31.722191l-1.279121 6.267691L0 707.649491c0 19.442633 12.791206 36.263069 31.210543 41.955156l6.331647 1.470989 6.651427 0.511648h935.037162z m-130.66217-87.875586H174.919743v-595.750421c0-52.827681 38.693398-97.341078 89.794266-105.84723l9.145712-1.151209 9.145713-0.383736h457.413528c53.211417 0 97.980638 38.50153 106.550746 89.218662l1.151209 9.081756 0.383736 9.401537v595.430641z m-456.837924-145.819749a44.129661 44.129661 0 0 0 43.745925-37.989882l0.383736-6.011867v-276.226094a44.129661 44.129661 0 1 0-87.939542-5.947911l-0.383736 5.947911v276.290051c0 24.239335 19.826369 43.873837 44.129661 43.873836z m239.067641 0a44.129661 44.129661 0 0 0 43.745925-37.989882l0.383736-6.011867v-276.226094a44.129661 44.129661 0 1 0-87.939542-5.947911l-0.383736 5.947911v276.290051c0 24.239335 19.826369 43.873837 44.129661 43.873836zM661.241397 896a44.129661 44.129661 0 0 0 44.12966-43.937793c0-22.256699-16.564612-40.612079-38.117794-43.4901l-6.011866-0.447693H368.834426a44.129661 44.129661 0 0 0-44.129661 43.937793c0 22.256699 16.628568 40.612079 38.181751 43.490101L368.834426 896h292.406971z"  horiz-adv-x="1024" />
      
      <glyph glyph-name="gerenzhongxin" unicode="&#59162;" d="M512 283.904c200.96 0 379.52-100.416 440.576-246.72l5.184-13.44 2.24-7.872v-54.272c0-46.528-35.648-84.864-80.96-89.216L870.4-128H153.6a89.728 89.728 0 0 0-89.216 81.024L64-38.4l0.576 57.408 1.664 4.8C121.664 177.28 304.96 283.904 512 283.904z m0-75.584c-168.32 0-316.544-79.168-367.488-190.912l-4.928-11.648v-44.16c0-6.464 4.48-11.968 10.432-13.632l3.776-0.512H870.4c6.464 0 12.032 4.48 13.696 10.432l0.512 3.712 0.64 40.96c-46.528 121.088-199.168 205.76-373.248 205.76zM512 832a260.736 260.736 0 0 0 260.48-260.48A260.736 260.736 0 0 0 512 311.04a260.736 260.736 0 0 0-260.48 260.48A260.736 260.736 0 0 0 512 832z m0-75.456a185.344 185.344 0 0 1-185.024-184.96A185.344 185.344 0 0 1 512 386.432a185.344 185.344 0 0 1 185.024 185.024A185.344 185.344 0 0 1 512 756.544z"  horiz-adv-x="1024" />
      
      <glyph glyph-name="shiyongxiangdao" unicode="&#59159;" d="M864 896A96 96 0 0 0 960 800v-832a96 96 0 0 0-96-96h-704A96 96 0 0 0 64-32v832A96 96 0 0 0 160 896h704zM470.144 819.84H140.032v-871.68h743.936V819.84h-94.336v-324.032a38.016 38.016 0 0 0-58.88-31.808L629.888 530.432 529.024 464a38.016 38.016 0 0 0-58.88 31.808V819.84z m301.248-699.072v-76.288h-527.36v76.288h527.36zM713.6 819.84H546.112v-253.44l62.912 41.408a37.888 37.888 0 0 0 41.728 0l62.912-41.408V819.84z"  horiz-adv-x="1024" />
      
      <glyph glyph-name="caozuozhinan" unicode="&#59160;" d="M815.902291 895.99424a39.679777 39.679777 0 0 0 37.247791-24.383863l1.72799-5.695968 0.575997-3.775979 0.191999-3.51998v-99.839438h64.767636c14.911916 0 28.159842-7.807956 35.007803-19.839889l2.559985-5.439969 1.599991-5.887967 0.575997-6.207965v-812.027432a37.37579 37.37579 0 0 0-24.383863-34.559806l-4.991972-1.535991-5.439969-0.959995-4.927972-0.319998H177.761881c-55.615687 0-102.591423 37.631788-111.99937 88.063505l-1.215993 9.023949L64.16252-22.016596V790.074836C64.16252 842.106543 104.738292 885.754298 158.625989 894.458249l9.599946 1.151993L177.825881 895.99424h638.07641zM143.522074 689.083404v-711.036001c0-13.759923 9.791945-25.727855 23.359868-29.823832l5.247971-1.151993 5.567968-0.383998h702.908046V684.027432H177.761881c-11.071938 0-21.951877 1.535991-32.383818 4.479975l-1.79199 0.639997zM512.16 416.380938c21.823877 0 39.679777-16.639906 39.679777-37.37579a37.567789 37.567789 0 0 0-26.879849-35.327801l-6.271965-1.535992L512.16 341.629358H303.777172c-21.823877 0-39.679777 16.639906-39.679777 37.37579 0 16.191909 11.007938 30.14383 26.879849 35.327801l6.271965 1.471992 6.527963 0.575997H512.16z m193.598911 140.671209c21.823877 0 39.743776-16.639906 39.743776-37.37579a37.631788 37.631788 0 0 0-27.007848-35.327801l-6.207965-1.535992-6.527963-0.511997H303.777172c-21.823877 0-39.679777 16.639906-39.679777 37.37579 0 16.191909 11.007938 30.14383 26.879849 35.327801l6.271965 1.471992 6.527963 0.575997h401.981739z m70.399604 264.318513l-598.396634-0.064c-16.831905 0-30.719827-11.199937-33.599811-25.727855l-0.511997-5.567969c0-13.695923 9.727945-25.599856 23.295869-29.695833l5.24797-1.151993 5.567969-0.447998h598.396634v62.655648z"  horiz-adv-x="1024" />
      
      <glyph glyph-name="tuichudenglu" unicode="&#59161;" d="M829.585881 896c59.757326 0 107.35845-42.162824 116.251671-100.70453l1.08766-9.916901 0.383881-9.916901v-78.311527c0-25.144142-16.634802-42.226804-41.523025-42.226805-19.705842 0-34.549203 10.876601-39.603623 28.407123l-1.471541 6.845861-0.44786 7.037801V775.397688c0 17.274602-8.765261 29.942643-22.776882 34.229304l-5.56626 1.2796-6.398001 0.44786H181.724338c-16.634802 0-28.791003-8.957201-33.077663-23.672603l-1.151641-5.7582-0.44786-6.525961v-782.603436c0-17.274602 8.765261-29.942643 22.776883-34.229304l5.56626-1.2796 6.398001-0.44786h647.797563c16.634802 0 28.791003 8.957201 33.077663 23.672603l1.15164 5.7582 0.44786 6.525961v78.311527c0 25.144142 16.698782 42.226804 41.587004 42.226805 19.705842 0 34.485223-10.876601 39.539644-28.407123l1.47154-6.845861 0.447861-7.037801v-78.247547c0-60.844986-40.755264-109.533771-97.76145-118.938832l-10.236801-1.2796-9.724961-0.3199H181.724338c-59.757326 0-107.35845 42.162824-116.251672 100.70453l-1.08766 9.916901L64.001126-7.141768V775.461668C64.001126 836.306654 104.75639 884.995439 161.762576 894.4005l10.236801 1.2796L181.724338 896h647.861543z m-67.306967-286.630428a39.539644 39.539644 0 0 0 46.961325 8.445361l5.886161-3.646861 5.56626-4.86248 190.148579-195.330959a34.805123 34.805123 0 0 0 1.66348-52.527585l-1.2796-2.8791-190.532459-199.61762a37.620244 37.620244 0 0 0-29.238863-12.796001 37.556264 37.556264 0 0 0-29.174883 12.796001 41.395064 41.395064 0 0 0-8.06148 47.601125l3.39094 5.7582 4.67054 5.758201 128.279913 123.801312H524.657171c-24.824242 0-41.523024 17.146642-41.523024 42.290784 0 20.025742 10.556701 35.061043 27.831303 40.307404l6.781881 1.53552 6.90984 0.44786 363.342456-5.31034-125.784693 129.111652a41.587004 41.587004 0 0 0 0 59.053546z"  horiz-adv-x="1024" />
      
      <glyph glyph-name="tishi" unicode="&#59158;" d="M512 896a512 512 0 1 1 0-1024A512 512 0 0 1 512 896z m49.664-807.424a25.6 25.6 0 0 0-25.6-25.6h-76.8a25.6 25.6 0 0 0-25.6 25.6v76.8a25.6 25.6 0 0 0 25.6 25.6h76.8c14.144 0 25.6-11.52 25.6-25.6v-76.8zM688.64 440.96c-10.24-14.72-33.664-33.408-62.848-56.192l-32.448-22.4c-15.744-12.16-29.696-26.368-34.816-42.624a130.624 130.624 0 0 1-4.032-24.512c-0.448-4.928-4.864-15.04-15.232-15.04H455.872c-13.504 0-16 10.624-15.744 15.808 1.536 33.984 4.608 64.192 18.496 80.448 28.032 32.896 91.904 73.856 91.904 73.856 9.728 7.36 17.6 15.36 23.552 24 10.816 14.912 19.84 31.296 19.84 49.216 0 20.608-6.08 39.36-18.176 56.32-12.032 16.896-34.048 25.408-65.984 25.408-31.424 0-53.76-10.432-66.88-31.36-9.728-15.36-15.808-29.568-18.368-44.992-0.896-5.44-4.352-16.896-16-16.896h-81.28c-17.344 0-21.12 11.2-20.672 16.64 6.272 68.096 32.896 114.624 80 144.512 32 20.608 71.36 30.912 118.08 30.912 61.44 0 112.384-14.592 152.96-43.904 40.576-29.312 60.928-72.64 60.928-130.176 0-35.2-12.352-64.896-29.952-89.024z"  horiz-adv-x="1024" />
      
      <glyph glyph-name="guanbi" unicode="&#59157;" d="M512 832a448 448 0 1 0 0-896A448 448 0 0 0 512 832z m178.176-230.144L512 423.68 333.824 601.728l-39.616-39.616 178.176-178.048-178.176-178.304 39.616-39.616L512 344.448l178.176-178.24 39.616 39.616L551.616 384l178.176 178.112-39.616 39.616z"  horiz-adv-x="1024" />
      
      <glyph glyph-name="zidingyi" unicode="&#59156;" d="M882.672581 540.346256c-95.007341-22.776171-95.007341-142.990847 0-166.02293-8.796976-32.308894-19.609259-63.978008-32.372872-94.943363-108.410734 25.815126-156.746119-71.399456-104.284152-134.193871-7.197526-37.427134-44.688638-45.552341-71.943269-63.24226-55.724845 65.801381-186.23998 43.505045-176.451345-63.562151h-112.825217c11.835931 99.741714-119.702852 136.46509-168.006247 63.562151-36.467464 9.084877-62.410546 28.342257-80.61229 55.149042 49.295055 68.872325 10.748305 167.30249-104.316141 142.2551-11.835931 30.165631-23.383962 61.834744-31.861048 94.975352 91.168661 14.171129 91.168661 151.851801 0 166.02293 8.477086 33.39652 20.025116 65.065634 31.861048 95.199275 108.890569-26.103027 157.193965 71.655368 104.284152 134.161882C144.078473 807.39046 181.345662 815.003842 208.568305 832.661773 264.069226 766.860392 394.32845 789.444628 384.795726 896h112.793228c-11.835931-99.485802 119.958764-136.177189 168.26216-63.274249 35.987629-9.372778 62.186623-28.342257 80.132454-54.957109-48.303396-68.840336-10.780294-167.30249 104.316141-142.2551 12.795602-31.029334 23.607885-62.794414 32.372872-95.135297v-0.031989z m-441.352285-247.786823c91.968386 0 167.238512 73.894599 167.238512 164.743369 0 91.168661-75.270126 164.743369-167.238512 164.74337-44.400737 0-87.01009-17.33804-118.359314-48.271407a163.047952 163.047952 0 0 1-48.879198-116.439974c0-90.88076 74.758302-164.807347 167.238512-164.807347zM1279.560151 125.448877c-52.142076-6.301834-59.339602-69.831995-10.780294-88.065727-6.909625-16.730249-14.874887-32.660773-22.872138-47.85555-55.980757 20.025116-87.32998-28.598169-63.690106-65.033645-6.685702-19.513292-26.710818-21.016775-42.38543-28.88607-25.175346 37.970947-95.871044 33.908344-97.63044-23.256006-19.833182 2.591109-39.666365 4.798351-59.595514 6.557746 12.571678 52.6539-54.733185 79.972509-85.282684 44.560682-18.233732 7.06957-30.581488 18.713567-38.290837 33.908344 29.781763 33.428509 15.930524 88.065727-46.703946 82.019806a383.100309 383.100309 0 0 0-10.844272 51.886164c48.81522 1.759395 57.548218 75.174159 10.300459 88.353628 6.653713 16.954172 14.618975 32.916685 22.840149 48.079473 56.268658-20.249039 87.841804 28.342257 63.978007 64.841711 6.397801 19.193402 26.198994 21.240699 42.353441 29.301927 25.175346-38.706695 95.871044-34.388179 96.862704 22.328325 20.313017-2.303208 40.050233-4.318516 59.883415-6.845647-13.115492-52.397988 55.213021-79.268751 85.026772-43.792946 16.954172-6.269845 31.029334-18.425666 39.570397-34.196245-30.8374-33.140608-16.442348-87.809815 45.968199-81.731905 4.894318-16.474337 8.221174-33.940333 11.292118-52.142076z m-249.674174-104.284152c49.039143-5.566087 93.471869 28.88607 98.366186 76.965543 6.685702 48.623286-29.014026 91.872419-77.861235 97.438505a89.057387 89.057387 0 0 1-98.878011-76.709631 88.481584 88.481584 0 0 1 78.37306-97.694417z"  horiz-adv-x="1280" />
      
      <glyph glyph-name="cunchuxitong" unicode="&#59148;" d="M242.048 896v-271.04c0-43.2 35.52-78.752 78.72-78.752h382.496a79.136 79.136 0 0 1 78.72 78.752V896h23.68L1024 678.336v-750.432c0-30.496-24.544-55.04-55.008-55.04h-96.48V339.52c0 43.2-35.52 78.784-78.72 78.784H229.344a79.136 79.136 0 0 1-78.688-78.784V-128H55.04A54.912 54.912 0 0 0 0-72.96V840.96C0 871.424 24.544 896 55.008 896h187.04zM787.84 333.6v-460.768H235.264v460.8h552.64zM565.312 896v-265.12h-238.656V896h238.656z m132.032 0v-265.12H649.92V896h47.36z"  horiz-adv-x="1024" />
      
      <glyph glyph-name="daifenleishebei" unicode="&#59149;" d="M1010.176 896C1053.12 895.872 1087.872 859.936 1088 815.584v-662.4c-0.128-44.352-34.88-80.32-77.824-80.416h-204.64c-34.656 0-51.968-43.328-27.456-68.576L848-67.84c14.88-26.784-3.808-60.16-33.696-60.16H282.464c-29.856 0-48.544 33.408-33.664 60.16l69.92 72.032c24.512 25.28 7.2 68.608-27.456 68.608h-213.44C34.88 72.896 0.128 108.8 0 153.184v662.4C0.128 859.936 34.88 895.904 77.824 896zM544 704a224 224 0 1 1 0.032-448.032A224 224 0 0 1 544 704z m20.64-330.816v-49.536h-49.504v49.536h49.504z m-21.088 263.2c105.44 0 99.04-99.04 99.04-99.04s0.864-31.2-34.848-58.688c-35.744-27.52-43.104-25.632-43.104-66.944h-48.608s-15.04 60.352 54.976 95.328c14.72 7.36 20.256 15.616 20.256 43.104s-17.472 44.064-43.136 44.064-52.256-4.608-52.256-56.864l-50.432-0.96s-7.328 100 98.112 100z"  horiz-adv-x="1088" />
      
      <glyph glyph-name="lousaoxitong" unicode="&#59150;" d="M512 896c282.784 0 512-229.216 512-512s-229.216-512-512-512S0 101.216 0 384 229.216 896 512 896z m6.336-69.888c-24.768 0-44.736-20.096-44.736-44.736v-28.928A373.44 373.44 0 0 1 147.712 426.432h-29.344a44.704 44.704 0 1 1 0-89.44h29.376a372.992 372.992 0 0 1 185.632-279.36 44.704 44.704 0 0 1 66.752 38.912c0 17.44-9.952 32.512-24.32 40.128l-7.968 4.8A283.296 283.296 0 0 0 238.08 338.88a44.736 44.736 0 0 1-0.064 85.76 283.68 283.68 0 0 0 237.344 237.376 44.736 44.736 0 0 1 85.92 0 283.648 283.648 0 0 0 237.216-236.576 44.736 44.736 0 0 1 0-87.36 283.648 283.648 0 0 0-237.12-236.576 44.736 44.736 0 0 1-87.776-12.256v-106.976a44.704 44.704 0 1 1 89.44 0v28.736A373.44 373.44 0 0 1 888.96 336.96h25.984a44.704 44.704 0 1 1 0 89.44h-25.984c-20.416 170.368-155.52 305.664-325.92 326.016v28.928c0 24.768-20.064 44.736-44.704 44.736z m0-326.176a118.112 118.112 0 1 1 0-236.256 118.112 118.112 0 0 1 0 236.256z m0-89.664a28.48 28.48 0 1 0-0.064-56.96 28.48 28.48 0 0 0 0.064 56.96z"  horiz-adv-x="1024" />
      
      <glyph glyph-name="fangbingduxitong" unicode="&#59151;" d="M512.896 896l210.112-40.352 21.696-4.16 188.416-36.192 26.88-5.664v-521.856c0-31.296-7.488-62.4-22.4-93.344a440.544 440.544 0 0 0-58.688-90.112c-24.192-29.088-51.84-56.64-82.88-82.592a900.64 900.64 0 0 0-94.528-69.44 723.84 723.84 0 0 0-93.184-50.72c-30.144-13.44-56.576-22.656-79.296-27.712l-10.752-1.856-9.856 1.856c-23.296 5.056-50.304 14.272-81.088 27.712-30.784 13.44-62.72 30.368-95.872 50.72a900.8 900.8 0 0 0-97.664 69.44 674.336 674.336 0 0 0-85.568 82.56 438.656 438.656 0 0 0-60.896 90.144C71.744 225.376 64 256.512 64 287.776V809.632l36.736 5.664 179.04 35.04 21.632 4.256L512.896 896zM512 768C318.112 768 160 609.792 160 416c0-193.888 158.208-352 352-352s352 158.208 352 352S705.888 768 512 768zM313.408 396.96c9.504-95.136 84.416-171.264 179.52-179.616v-114.176c-158.08 8.352-285.408 135.584-293.696 293.76h114.176z m511.36 0c-9.504-158.208-135.584-285.44-293.76-293.76v114.144a198.144 198.144 0 0 1 179.584 179.616h114.176z m-331.84 0v-141.504c-73.696 8.256-133.12 67.776-141.472 141.504h141.504z m179.616 0c-8.32-73.728-67.776-133.248-141.504-141.504v141.504h141.504zM531.04 728.768c158.208-9.504 285.44-135.584 293.76-293.76h-114.24c-9.472 95.168-84.384 171.2-179.52 179.584V728.768z m-38.016 0v-114.176a198.08 198.08 0 0 1-179.616-179.616H199.232c9.504 158.208 135.584 285.44 293.76 293.76z m38.016-152.224a161.728 161.728 0 0 0 141.504-141.568h-141.504V576.544z m-38.08 0v-141.504l-141.536 0.032 0.992 7.008c11.232 70.464 69.184 126.4 140.544 134.464z"  horiz-adv-x="1024" />
      
      <glyph glyph-name="shenjixitong" unicode="&#59152;" d="M1010.176 896C1053.12 895.872 1087.872 859.936 1088 815.584v-662.4c-0.128-44.352-34.88-80.32-77.824-80.416h-204.64c-34.656 0-51.968-43.328-27.456-68.576L848-67.84c14.88-26.784-3.808-60.16-33.696-60.16H282.464c-29.856 0-48.544 33.408-33.664 60.16l69.92 72.032c24.512 25.28 7.2 68.608-27.456 68.608h-213.44C34.88 72.896 0.128 108.8 0 153.184v662.4C0.128 859.936 34.88 895.904 77.824 896z m-595.52-404.992h-62.496c-17.76 0-32.16-14.592-32.16-32.576v-137.824c0-18.016 14.4-32.608 32.16-32.608h62.464c17.728 0 32.16 14.592 32.16 32.576v137.856c0 17.984-14.4 32.576-32.16 32.576zM735.808 704h-62.464c-17.728 0-32.16-14.592-32.16-32.576v-350.848c0-17.984 14.4-32.576 32.16-32.576h62.464C753.6 288 768 302.592 768 320.576V671.424C768 689.408 753.6 704 735.84 704zM576 598.816h-62.464c-17.728 0-32.16-14.624-32.16-32.576v-244.384c0-17.952 14.4-32.544 32.16-32.544H576c17.76 0 32.16 14.592 32.16 32.544v244.384c0 17.952-14.4 32.576-32.16 32.576z"  horiz-adv-x="1088" />
      
      <glyph glyph-name="NASxitong" unicode="&#59153;" d="M960 128a32 32 0 0 0-32 32v224a32 32 0 0 1-32 32H576a32 32 0 0 0-32 32v108.16a32 32 0 0 0 32 32h58.24a32 32 0 0 1 32 32V864a32 32 0 0 1-32 32h-244.48a32 32 0 0 1-32-32v-243.84a32 32 0 0 1 32-32H448a32 32 0 0 0 32-32V448a32 32 0 0 0-32-32H128a32 32 0 0 1-32-32v-223.36A32 32 0 0 0 64 128H32a32 32 0 0 1-32-32v-192a32 32 0 0 1 32-32h192a32 32 0 0 1 32 32v192a32 32 0 0 1-32 32H192a32 32 0 0 0-32 32v160a32 32 0 0 0 32 32h256a32 32 0 0 0 32-32v-159.36A32 32 0 0 0 448 128h-32.64a32 32 0 0 1-32-32v-192a32 32 0 0 1 32-32h192a32 32 0 0 1 32 32v192a32 32 0 0 1-32 32H576a32 32 0 0 0-32 32v160a32 32 0 0 0 32 32h256a32 32 0 0 0 32-32v-159.36a32 32 0 0 0-32-32h-32a32 32 0 0 1-32-32v-192a32 32 0 0 1 32-32h192a32 32 0 0 1 32 32v192a32 32 0 0 1-32 32L960 128z"  horiz-adv-x="1024" />
      
      <glyph glyph-name="wangluoyingpanluxiangji" unicode="&#59154;" d="M749.984 480c25.984 0 45.856-2.912 59.616-8.736 13.76-5.856 25.6-17.056 35.52-33.632 3.84-6.752 9.952-17.216 18.368-31.328l28.672-47.904c10.72-17.824 21.76-36.704 33.28-56.64a17643.36 17643.36 0 0 1 60.16-104.096c8.032-13.824 13.6-23.808 16.64-29.952 3.84-6.752 7.072-11.84 9.76-15.2 2.656-3.392 4.96-7.04 6.88-11.072 1.92-3.968 3.232-8.736 4-14.272 0.768-5.504 1.152-13.184 1.152-23.04 0-7.36-0.192-18.72-0.576-34.08-0.384-15.36-0.576-31.616-0.576-48.8v-87.52c0-17.216-6.304-31.776-18.912-43.776-12.608-11.968-30.784-17.952-54.464-17.952H68.832c-22.208 0-39.04 5.696-50.496 17.056-11.456 11.36-17.6 25.92-18.336 43.744v32.256c0 14.112 0.192 29.152 0.576 45.12 0.384 16 0.576 31.936 0.576 47.904v38.72c0 10.432 0.192 18.72 0.576 24.864a64 64 0 0 0 2.88 16.096 196.576 196.576 0 0 0 13.76 32.704c2.272 4.928 7.232 14.272 14.88 28.096 7.68 13.824 16.832 29.632 27.52 47.456 10.72 17.792 22.368 36.832 34.976 57.12 12.608 20.256 24.48 39.456 35.552 57.568 11.072 18.112 21.216 34.24 30.4 48.352l18.336 30.4c9.92 16 22.176 26.72 36.704 32.256 14.528 5.536 31.712 8.288 51.584 8.288h481.6z m166.272-364.8l-811.872-0.928c-12.992 0-22.944-2.88-29.824-8.736a28.224 28.224 0 0 1-10.304-22.592v-130.784c0-7.36 2.464-13.536 7.456-18.432 4.96-4.928 12.8-7.36 23.488-7.36l816.448-0.96c15.296 0 25.248 2.944 29.824 8.768a33.92 33.92 0 0 1 6.88 21.664v131.712c0 18.432-10.72 27.648-32.096 27.648zM205.28 82.944v-130.784H170.912v130.784h34.4z m104.352 0v-130.784H275.232v130.784h34.4z m105.504 0v-130.784h-34.4v130.784h34.4z m104.32 0v-130.784h-34.368v130.784h34.4z m107.84 0v-130.784h-34.432v130.784h34.4z m106.624 0v-130.784h-34.4v130.784h34.4z m100.896 0v-130.784h-34.4v130.784h34.4zM184.672 266.304c-10.688 0-19.68-2.944-26.944-8.768-7.264-5.856-10.88-13.056-10.88-21.664 0-8.576 3.616-15.808 10.88-21.632 7.264-5.856 16.256-8.768 26.944-8.768 10.72 0 19.68 2.912 26.944 8.768 7.264 5.824 10.88 13.056 10.88 21.632 0 8.608-3.616 15.808-10.88 21.664-7.264 5.824-16.224 8.736-26.944 8.736z m652.48 0c-10.688 0-19.68-2.944-26.944-8.768-7.264-5.856-10.88-13.056-10.88-21.664 0-8.576 3.616-15.808 10.88-21.632 7.264-5.856 16.256-8.768 26.944-8.768 10.688 0 19.52 2.912 26.368 8.768a27.296 27.296 0 0 1 10.336 21.632 27.296 27.296 0 0 1-10.336 21.664c-6.88 5.824-15.68 8.736-26.368 8.736z m-564.16 165.792c-10.72 0-19.712-2.912-26.976-8.736-7.264-5.856-10.88-13.056-10.88-21.664 0-8.608 3.616-15.808 10.88-21.632 7.264-5.856 16.256-8.768 26.976-8.768 10.688 0 19.488 2.912 26.368 8.768a27.296 27.296 0 0 1 10.304 21.632 27.296 27.296 0 0 1-10.304 21.664c-6.88 5.824-15.68 8.736-26.368 8.736z m475.84 0c-10.688 0-19.456-2.912-26.336-8.736a27.296 27.296 0 0 1-10.336-21.664c0-8.608 3.456-15.808 10.336-21.632 6.88-5.856 15.68-8.768 26.368-8.768 10.688 0 19.68 2.912 26.944 8.768 7.264 5.824 10.88 13.024 10.88 21.632 0 8.608-3.616 15.808-10.88 21.664-7.264 5.824-16.256 8.736-26.944 8.736zM527.296 896c47.584 0 64.8-4.416 82.176-12.704 17.408-8.32 31.04-20.448 40.32-35.968l1.024-1.728c8.48-14.688 13.056-30.112 13.216-69.248v-110.4c0-42.4-4.96-57.792-14.24-73.28-9.28-15.52-22.912-27.648-40.32-35.968l-1.92-0.96c-16.48-7.52-33.76-11.616-77.664-11.744h-201.056c-47.584 0-64.8 4.416-82.208 12.704a92.352 92.352 0 0 0-40.32 35.968l-1.056 1.76c-8.448 14.656-13.024 30.144-13.184 69.184V774.08c0 42.368 4.896 57.76 14.24 73.248 9.28 15.52 22.944 27.648 40.32 35.968l1.984 0.96C264.992 891.744 282.336 895.84 326.112 896h201.152z m264.384-54.304c11.904-1.056 22.816-6.272 30.24-14.464 6.56-7.136 10.144-16.128 10.144-25.312v-163.936c0.128-10.496-4.512-20.608-12.928-28.16a48.896 48.896 0 0 0-60.416-2.848l-44 32.096c-18.656 13.728-29.408 33.92-29.344 55.232V745.44c0 21.44 10.784 41.696 29.344 55.2l44 32.192c9.152 6.72 21.056 9.92 32.96 8.864z"  horiz-adv-x="1024" />
      
      <glyph glyph-name="zhuoguanxitong" unicode="&#59155;" d="M1010.176 896C1053.12 895.872 1087.872 859.936 1088 815.584v-662.4c-0.128-44.352-34.88-80.32-77.824-80.416h-204.64c-34.656 0-51.968-43.328-27.456-68.576L848-67.84c14.88-26.784-3.808-60.16-33.696-60.16H282.464c-29.856 0-48.544 33.408-33.664 60.16l69.92 72.032c24.512 25.28 7.2 68.608-27.456 68.608h-213.44C34.88 72.896 0.128 108.8 0 153.184v662.4C0.128 859.936 34.88 895.904 77.824 896z m-430.08-192h-72.224a26.56 26.56 0 0 1-26.528-26.592 56.032 56.032 0 0 0-28.288-48.32l-0.64-0.352c-8.736-5.088-18.592-7.744-28.672-7.776a55.04 55.04 0 0 0-27.52 7.36 26.592 26.592 0 0 1-36.32-9.76l-36.096-62.464a26.592 26.592 0 0 1 9.76-36.32l11.072-6.4c11.296-6.528 17.856-18.912 16.96-31.936a179.584 179.584 0 0 1 0-21.472c0.896-13.024-5.664-25.408-16.96-31.936l-11.712-6.784a25.888 25.888 0 0 1-9.472-35.296l36.864-63.744a25.856 25.856 0 0 1 35.328-9.472l0.64 0.384c8.352 4.8 17.856 7.36 27.52 7.36 10.048-0.032 19.936-2.72 28.64-7.776l0.608-0.352c17.344-9.92 28.128-28.32 28.256-48.32v-0.736c0-14.272 11.584-25.824 25.856-25.856h73.664a25.888 25.888 0 0 1 25.856 25.856v0.736c0.128 20 10.912 38.4 28.288 48.32l0.64 0.32c8.672 5.088 18.56 7.776 28.64 7.776 9.632 0 19.104-2.528 27.488-7.328l0.64-0.384c12.352-7.136 28.16-2.88 35.328 9.472l36.8 63.744a25.888 25.888 0 0 1-9.44 35.36 56.832 56.832 0 0 0-28.352 49.12v0.64c0 20.256 10.816 38.976 28.352 49.152a25.888 25.888 0 0 1 9.472 35.296l-36.8 63.744a25.856 25.856 0 0 1-35.36 9.44l-0.576-0.32c-8.384-4.832-17.888-7.36-27.52-7.36a57.28 57.28 0 0 0-28.736 7.776l-0.544 0.32a56.128 56.128 0 0 0-28.352 48.32 26.56 26.56 0 0 1-26.56 26.56z m-40.096-148.448a84.8 84.8 0 1 0 0-169.664 84.8 84.8 0 0 0 0 169.664z"  horiz-adv-x="1088" />
      
      <glyph glyph-name="dianlizizhujiaofeichaxunzhongduan" unicode="&#59141;" d="M1010.176 896C1053.12 895.872 1087.872 859.936 1088 815.584v-662.4c-0.128-44.352-34.88-80.32-77.824-80.416h-204.64c-34.656 0-51.968-43.328-27.456-68.576L848-67.84c14.88-26.784-3.808-60.16-33.696-60.16H282.464c-29.856 0-48.544 33.408-33.664 60.16l69.92 72.032c24.512 25.28 7.2 68.608-27.456 68.608h-213.44C34.88 72.896 0.128 108.8 0 153.184v662.4C0.128 859.936 34.88 895.904 77.824 896zM645.248 704h-209.984L352 442.72h184.576L410.048 192 736 511.712h-209.92L645.248 704z"  horiz-adv-x="1088" />
      
      <glyph glyph-name="diannengbiaojiliangzhouzhuanguixitong" unicode="&#59142;" d="M1228.78935 270.197722a630.642001 630.642001 0 0 0-123.356797-376.248472 55.295521 55.295521 0 0 0-44.543614-21.947543H168.036944a55.500319 55.500319 0 0 0-44.680146 22.049942C30.924532 19.115098-16.656922 180.564366 5.290621 353.482334 40.857246 634.465499 266.613156 860.153143 543.056627 891.896868c371.265049 42.598031 685.732724-252.140748 685.732723-621.699146z m-781.987889 238.760598l72.805769-296.274766 1.774918-6.143947a81.304895 81.304895 0 0 1 45.089743-49.322239 79.768909 79.768909 0 0 1 71.952443 4.573827l8.669791 5.119956 5.324754 3.413304a82.226487 82.226487 0 0 1 10.478843 125.643711l-216.062128 212.990154z m-223.571396-181.894957H111.956363c-37.375676 0-56.080581-18.87557-56.080581-56.694976v-0.34133c0-37.853539 18.704905-56.763241 56.080581-56.763241H223.230065c37.375676 0 56.080581 18.909703 56.080581 56.729108v0.34133c0 37.853539-18.704905 56.729108-56.080581 56.729109z m893.637055 0h-111.376101c-37.375676 0-55.978182-18.87557-55.978181-56.694976 0-38.126603 18.602505-57.002173 55.978181-57.002172h111.376101c37.30741 0 55.978182 18.87557 55.978182 56.694975 0 38.126603-18.670772 57.002173-55.978182 57.002173z m-147.113391 362.151528c-14.813738 0-29.047215-6.007415-39.457792-16.656923l-78.949715-80.485702a57.616567 57.616567 0 0 1 0-80.519835 55.295521 55.295521 0 0 1 78.949715 0l78.949716 80.519835c21.845144 22.35714 21.845144 58.162696 0 80.485702a55.227255 55.227255 0 0 1-39.457791 16.62279z m-710.820506 0c-14.847871 0-29.047215-6.007415-39.457792-16.656923a57.616567 57.616567 0 0 1 0-80.485702l78.949716-80.519835a55.295521 55.295521 0 0 1 78.949716 0c21.845144 22.35714 21.845144 58.162696 0 80.519835L298.425147 672.557968a55.227255 55.227255 0 0 1-39.491924 16.62279zM614.394675 839.058925c-37.205011 0-55.841649-18.841437-55.841649-56.490177v-114.550473c0-37.580474 18.602505-56.490177 55.841649-56.490178 37.205011 0 55.841649 18.841437 55.84165 56.490178V782.602881c0 37.64874-18.602505 56.490177-55.84165 56.490178z"  horiz-adv-x="1228" />
      
      <glyph glyph-name="zizhuchaxunzhongduan" unicode="&#59143;" d="M1010.176 896C1053.12 895.872 1087.872 859.936 1088 815.584v-662.4c-0.128-44.352-34.88-80.32-77.824-80.416h-204.64c-34.656 0-51.968-43.328-27.456-68.576L848-67.84c14.88-26.784-3.808-60.16-33.696-60.16H282.464c-29.856 0-48.544 33.408-33.664 60.16l69.92 72.032c24.512 25.28 7.2 68.608-27.456 68.608h-213.44C34.88 72.896 0.128 108.8 0 153.184v662.4C0.128 859.936 34.88 895.904 77.824 896zM507.936 704a218.688 218.688 0 0 1-155.52-64.448A218.336 218.336 0 0 1 288 484.032a218.56 218.56 0 0 1 64.448-155.584 218.56 218.56 0 0 1 155.52-64.416 218.496 218.496 0 0 1 119.616 35.264l93.888-93.888c17.888-17.888 47.2-17.888 65.12 0a46.304 46.304 0 0 1-0.064 65.184l-93.888 93.824a218.368 218.368 0 0 1 35.296 119.584 218.56 218.56 0 0 1-64.448 155.552A218.56 218.56 0 0 1 507.936 704z m-0.064-66.016a15.072 15.072 0 0 0 0.064-30.08 124.032 124.032 0 0 1-123.872-123.904 15.072 15.072 0 0 0-30.176 0 154.176 154.176 0 0 0 153.984 153.984z"  horiz-adv-x="1088" />
      
      <glyph glyph-name="AMCdonghuanshujujiancexitong" unicode="&#59144;" d="M896 896a64 64 0 0 0 64-64v-896a64 64 0 0 0-64-64H128a64 64 0 0 0-64 64V832a64 64 0 0 0 64 64h768z m-221.44-832c-22.496 0-39.616-6.4-51.456-19.52-10.432-11.36-15.552-26.368-15.552-44.64 0-18.656 4.928-33.472 14.976-44.512 11.424-12.8 28.96-19.328 52.384-19.328 15.2 0 28.16 3.808 39.04 11.392 11.616 8.096 18.88 19.328 22.048 33.792h-22.464c-2.752-9.28-7.488-16.384-14.176-21.024-6.304-4.16-14.592-6.4-24.64-6.4-15.36 0-26.784 4.32-34.08 12.608-6.72 7.744-10.048 18.976-10.048 33.472 0 14.144 3.36 25.184 10.24 33.12 7.488 8.96 18.56 13.28 33.28 13.28 9.888 0 17.952-1.728 24.256-5.536a28.8 28.8 0 0 0 13.216-17.76h22.432a44.32 44.32 0 0 1-18.496 29.664c-10.656 7.584-24.448 11.392-40.96 11.392z m-306.56-2.4h-26.24L288-61.6h24.64l12.8 30.88h58.88l12.8-30.88h24.64l-53.76 123.2z m94.56 0h-27.008v-123.2h23.04v84.896h0.8l41.376-84.896h19.904l41.376 84.896h0.768v-84.896h23.04v123.2h-26.976l-47.68-96.64h-0.768l-47.872 96.64z m-107.2-21.76l22.08-53.984h-45.12l22.272 53.984h0.8zM512 256a64 64 0 1 1 0-128 64 64 0 0 1 0 128z m224-32a32 32 0 1 1 0-64 32 32 0 0 1 0 64zM288 224a32 32 0 1 1 0-64 32 32 0 0 1 0 64zM800 768H224a32 32 0 0 1-31.776-28.256L192 736v-320a32 32 0 0 1 28.256-31.776L224 384h274.912c1.408 4.48 3.296 8.8 5.664 12.864l-84.288 145.984a32 32 0 0 0 55.424 32l84.32-145.984A64 64 0 0 0 621.12 384L800 384a32 32 0 0 1 31.776 28.256L832 416V736a32 32 0 0 1-32 32z"  horiz-adv-x="1024" />
      
      <glyph glyph-name="paihaoji" unicode="&#59145;" d="M768 896l128-409.6V-128H256l-128 143.328V896h640z m-16-512h-352a16 16 0 1 1 0-32h352a16 16 0 1 1 0 32zM668.448 814.08H277.344l78.208-245.76h391.104L668.48 814.08z"  horiz-adv-x="1024" />
      
      <glyph glyph-name="CACzaixianjiancezhuangzhixitong" unicode="&#59146;" d="M1024 159.424v251.52c0 30.528-22.944 53.888-52.96 53.888H158.88v71.872h812.16c28.256 0 52.96 23.36 52.96 53.888v251.52C1024 872.64 1001.056 896 971.04 896H52.96C24.704 896 0 872.64 0 842.112v-251.52c0-30.528 22.944-53.888 52.96-53.888H88.32v-71.872H52.96c-28.256 0-52.96-23.36-52.96-53.888v-251.52c0-30.528 22.944-53.888 52.96-53.888h918.08c30.016 0 52.96 23.36 52.96 53.888zM88.288 734.304V806.176h70.624v-71.872H88.288zM865.088 626.56V806.176h70.624v-179.648h-70.624zM88.32 303.168v71.84h70.624v-71.84H88.288z m776.8-107.808V375.04h70.624v-179.648h-70.624zM0-75.904c0 28.736 22.944 52.096 51.2 52.096h921.6c28.256 0 51.2-23.36 51.2-52.096C1024-104.64 1001.056-128 972.8-128H51.2C22.944-128 0-104.64 0-75.904z"  horiz-adv-x="1024" />
      
      <glyph glyph-name="zizhujiaofeichaxunzhongduan" unicode="&#59147;" d="M1010.176 896C1053.12 895.872 1087.872 859.936 1088 815.584v-662.4c-0.128-44.352-34.88-80.32-77.824-80.416h-204.64c-34.656 0-51.968-43.328-27.456-68.576L848-67.84c14.88-26.784-3.808-60.16-33.696-60.16H282.464c-29.856 0-48.544 33.408-33.664 60.16l69.92 72.032c24.512 25.28 7.2 68.608-27.456 68.608h-213.44C34.88 72.896 0.128 108.8 0 153.184v662.4C0.128 859.936 34.88 895.904 77.824 896zM680.736 339.648c-37.408 21.984-91.936 28.192-163.616 18.72-28.576 0.096-40.512-8.64-35.84-26.208 7.04-26.336 97.184-24.576 97.184-37.76 0-13.184-44.064-25.6-86.144-25.6-42.08 0-101.44 62.56-136.48 62.56-35.072 0-35.84-4.288-35.84-17.472C320 300.704 464.256 192 492.32 192c28.032 0 97.28 15.872 139.328 35.648 22.496 10.56 43.52 5.6 63.008-14.944a17.312 17.312 0 0 1 27.168 2.656l36.8 58.304a16.928 16.928 0 0 1-5.824 23.712l-72.064 42.272zM544 704c-123.712 0-224-99.328-224-221.856a219.328 219.328 0 0 1 35.264-119.52c21.76 0.672 38.72-4.992 50.88-17.024 11.68-11.552 29.248-23.104 52.736-34.656a34.016 34.016 0 0 0-9.664 17.6c-5.664 31.2 8.704 51.104 43.104 59.712 104.032 16.256 178.72 4.896 224-34.112l6.496-5.664A219.456 219.456 0 0 1 768 482.144C768 604.672 667.712 704 544 704z m-61.664-86.656a17.344 17.344 0 0 0 24.384 0l40.416-40 40.416 40a17.344 17.344 0 0 0 28.832-7.68 16.96 16.96 0 0 0-4.448-16.48L568.704 550.4h44.32c9.504 0 17.216-7.648 17.216-17.056a17.152 17.152 0 0 0-17.216-17.088h-51.776v-34.112h51.776c9.504 0 17.216-7.68 17.216-17.088a17.152 17.152 0 0 0-17.216-17.056h-51.776v-36.608a16.96 16.96 0 0 0-5.056-12.064 17.344 17.344 0 0 0-24.416 0 16.96 16.96 0 0 0-5.024 12.064V448h-51.776a17.152 17.152 0 0 0-17.216 17.056c0 9.44 7.712 17.088 17.216 17.088h51.776v34.112h-51.776a17.152 17.152 0 0 0-17.216 17.088c0 9.408 7.712 17.056 17.216 17.056h50.56l-43.2 42.784a16.96 16.96 0 0 0 0 24.16z"  horiz-adv-x="1088" />
      
      <glyph glyph-name="Polycomzhongduan" unicode="&#59140;" d="M880.552965 576.019999c43.069308-7.19955 76.47522-41.885382 79.195051-84.090745l0.191988-5.535654v-100.15374l119.9925 72.827448a45.59715 45.59715 0 0 0 47.997 0c12.95919-8.191488 22.046622-20.062746 23.710518-32.31798l0.287982-4.095744v-409.574401c0-18.174864-9.5994-31.83801-23.9985-40.957441a45.725142 45.725142 0 0 0-43.51728-2.431848l-4.47972 2.463846L959.940004 40.373477v-77.339167c0-48.284982-40.15749-88.090494-90.362353-90.87432l-5.631648-0.15999H95.994C45.085182-127.936004 3.103806-89.858384 0.15999-42.277358L0-36.933692V486.3936C0 531.062809 34.429848 568.500469 79.387038 576.019999H880.584963zM282.158365 418.909818l-4.927692-5.247672-9.375414-10.111368c-31.998-31.998-1.5999-153.462409 118.296607-273.358915 119.896506-119.896506 239.793013-150.262609 273.358915-118.296606 3.99975 3.99975 8.351478 8.095494 12.735204 12.31923l5.247672 5.11968 5.11968 5.247672c22.654584 23.9985 37.629648 52.47672-10.335354 90.810324-63.932004 51.164802-81.530904 25.5984-110.297107-3.1998-20.7987-20.7987-71.931504 22.3986-116.696706 67.131804l-4.607712 4.671708-9.151428 9.407412c-39.229548 40.95744-71.9955 83.99475-53.372665 102.617587 28.7982 28.7982 54.364602 46.3971 3.1998 110.297106-42.621336 53.308668-74.139366 28.862196-99.1938 2.591838z m185.908381 425.76539l36.093744-89.818387h1.695894l34.141866 89.818387h44.349228l-51.452784-114.328855-3.071808-6.495594a186.900319 186.900319 0 0 0-12.15924-21.630648c-5.023686-7.51953-10.87932-13.535154-17.5989-17.950878-6.751578-4.447722-14.751078-7.583526-24.062496-9.471408-9.27942-1.855884-20.542716-2.783826-33.821886-2.783826v29.150178l5.311668 0.095994c10.143366 0.383976 17.662896 1.855884 22.55859 4.47972a24.79845 24.79845 0 0 1 11.935254 14.07912l-59.708268 124.856197h45.75714z m-221.522155 2.335854c11.935254 0 22.55859-1.023936 31.83801-3.03981 9.27942-2.015874 17.11893-5.535654 23.454534-10.495344 6.367602-4.991688 11.231298-11.67927 14.655084-20.062746 3.423786-8.415474 5.11968-18.974814 5.11968-31.742016s-1.695894-23.35854-5.11968-31.742017c-3.423786-8.383476-8.31948-15.071058-14.655084-20.062746a57.11643 57.11643 0 0 0-23.454534-10.495344c-9.27942-2.015874-19.902756-3.03981-31.83801-3.03981a152.630461 152.630461 0 0 0-31.998 3.03981 57.180426 57.180426 0 0 0-23.614524 10.495344 47.613024 47.613024 0 0 0-14.623086 20.062746c-3.423786 8.415474-5.11968 18.974814-5.11968 31.742017s1.695894 23.35854 5.11968 31.742016c3.391788 8.383476 8.287482 15.071058 14.623086 20.062746 6.367602 4.95969 14.23911 8.47947 23.614524 10.495344a152.630461 152.630461 0 0 0 31.998 3.03981z m427.941254 0c7.583526 0 14.87907-0.351978 21.91863-1.055934 7.007562-0.703956 12.863196-1.663896 17.5989-2.911818v-28.47822l-6.175614 1.695894a122.008374 122.008374 0 0 1-27.934254 2.975814 77.43516 77.43516 0 0 1-17.5989-1.75989 26.462346 26.462346 0 0 1-12.127242-6.07962 25.822386 25.822386 0 0 1-6.943566-11.51928c-1.535904-4.7997-2.271858-10.87932-2.271858-18.206862 0-7.295544 0.735954-13.375164 2.23986-18.206863 1.535904-4.7997 3.903756-8.63946 7.135554-11.423286 3.1998-2.783826 7.35954-4.7997 12.351228-5.951628 5.023686-1.151928 11.071308-1.75989 18.07887-1.75989 6.07962 0 11.967252 0.351978 17.75889 1.055934 5.75964 0.703956 11.423286 1.91988 16.926942 3.615774v-27.742266l-2.431848-0.767952a61.852134 61.852134 0 0 0-5.663646-1.215924 222.386101 222.386101 0 0 0-21.630648-2.55984c-3.871758-0.255984-7.615524-0.383976-11.1993-0.383976a152.630461 152.630461 0 0 0-31.998 3.03981 59.580276 59.580276 0 0 0-23.902507 10.495344 46.621086 46.621086 0 0 0-14.943066 20.062746c-3.391788 8.415474-5.11968 18.974814-5.11968 31.742017s1.727892 23.35854 5.11968 31.742016c3.423786 8.383476 8.415474 15.071058 14.943066 20.062746 6.527592 4.95969 14.495094 8.47947 23.870509 10.495344a152.630461 152.630461 0 0 0 31.998 3.03981z m141.335166 0c11.935254 0 22.55859-1.023936 31.83801-3.03981 9.27942-2.015874 17.11893-5.535654 23.454534-10.495344 6.367602-4.991688 11.231298-11.67927 14.655084-20.062746 3.423786-8.415474 5.11968-18.974814 5.11968-31.742016s-1.695894-23.35854-5.11968-31.742017c-3.423786-8.383476-8.31948-15.071058-14.655084-20.062746a57.11643 57.11643 0 0 0-23.454534-10.495344c-9.27942-2.015874-19.902756-3.03981-31.83801-3.03981a152.630461 152.630461 0 0 0-31.998 3.03981 57.180426 57.180426 0 0 0-23.582526 10.495344 47.613024 47.613024 0 0 0-14.655084 20.062746c-3.423786 8.415474-5.11968 18.974814-5.11968 31.742017s1.695894 23.35854 5.11968 31.742016c3.423786 8.383476 8.31948 15.071058 14.655084 20.062746 6.335604 4.95969 14.207112 8.47947 23.582526 10.495344a152.630461 152.630461 0 0 0 31.998 3.03981zM396.103244 896v-137.911381l0.127992-3.103806c0.31998-3.903756 1.215924-6.591588 2.71983-8.063496 1.91988-1.887882 5.215674-2.815824 9.951378-2.815824a38.141616 38.141616 0 0 1 8.255484 0.703956v-26.142366l-5.631648-0.767952a111.67302 111.67302 0 0 0-11.99925-0.63996c-8.543466 0-15.647022 0.671958-21.342667 2.015874a36.381726 36.381726 0 0 0-13.75914 5.951628 21.054684 21.054684 0 0 0-7.423536 10.143366 44.7972 44.7972 0 0 0-2.111868 14.55909V896h41.213425zM67.387788 880.608962l8.575464-0.127992c11.071308-0.31998 20.574714-1.343916 28.542216-3.03981 9.91938-2.07987 17.91888-5.343666 23.870509-9.791388 5.983626-4.415724 10.23936-10.111368 12.7992-17.022936 2.55984-6.943566 3.83976-15.295044 3.83976-25.086432 0-10.55934-1.407912-19.486782-4.255734-26.71833a38.71758 38.71758 0 0 0-13.663147-17.5989 61.11618 61.11618 0 0 0-24.15849-9.695394 186.548341 186.548341 0 0 0-35.51778-2.911818H43.1973v-49.916881H0V880.576964h67.387788zM1100.731204 847.011062c17.27892 0 30.07812-3.51978 38.55759-10.623336 8.415474-7.071558 12.63921-18.462846 12.63921-34.173864v-83.514781h-41.245422V795.878258l-0.127992 4.063746c-0.47997 6.431598-2.143866 11.135304-4.991688 14.143116-3.391788 3.551778-9.471408 5.343666-18.174864 5.343666-8.351478 0-14.847072-1.375914-19.486782-4.15974-4.63971-2.815824-7.903506-7.583526-9.823386-14.271108v-82.362853H1016.896444V795.910256l-0.15999 4.063746c-0.447972 6.431598-2.111868 11.135304-4.95969 14.143116-3.423786 3.551778-9.27942 5.343666-17.630898 5.343666-8.543466 0-14.87907-1.27992-19.070808-3.83976-4.15974-2.55984-7.295544-6.975564-9.375414-13.183176v-83.770765h-41.213424V844.675208h41.213424v-14.23911l2.687832 3.1998c3.775764 3.99975 8.415474 7.103556 13.951128 9.27942 6.911568 2.71983 15.775014 4.095744 26.590338 4.095744 11.551278 0 20.894694-1.471908 27.99825-4.447722 7.103556-2.943816 12.383226-7.35954 15.807012-13.27917 4.15974 6.367602 10.367352 10.911318 18.622836 13.631148 8.223486 2.71983 18.046872 4.095744 29.43816 4.095744zM246.544591 821.76464c-6.271608 0-11.51928-0.63996-15.775014-1.983876a20.894694 20.894694 0 0 1-10.23936-6.655584 27.870258 27.870258 0 0 1-5.43966-12.351228c-1.023936-5.11968-1.535904-11.51928-1.535904-19.134804s0.575964-13.983126 1.695894-19.134805a28.15824 28.15824 0 0 1 5.567652-12.255234c2.55984-3.007812 5.91963-5.151678 10.07937-6.3996 4.15974-1.27992 9.375414-1.887882 15.647022-1.887882 6.23961 0 11.51928 0.63996 15.775014 1.887882a20.510718 20.510718 0 0 1 10.23936 6.3996 27.006312 27.006312 0 0 1 5.407662 12.255234c1.023936 5.11968 1.567902 11.51928 1.567902 19.134805s-0.575964 14.015124-1.727892 19.134804a29.086182 29.086182 0 0 1-5.535654 12.351228 20.894694 20.894694 0 0 1-10.07937 6.655584 52.47672 52.47672 0 0 1-15.67902 1.983876z m569.244422 0c-6.23961 0-11.487282-0.63996-15.743016-1.983876a20.894694 20.894694 0 0 1-10.23936-6.655584 27.870258 27.870258 0 0 1-5.43966-12.351228c-1.023936-5.11968-1.535904-11.51928-1.535904-19.134804s0.575964-13.983126 1.695894-19.134805a28.15824 28.15824 0 0 1 5.567652-12.255234c2.55984-3.007812 5.91963-5.151678 10.07937-6.3996 4.15974-1.27992 9.375414-1.887882 15.647022-1.887882 6.23961 0 11.51928 0.63996 15.775014 1.887882a20.510718 20.510718 0 0 1 10.23936 6.3996 27.006312 27.006312 0 0 1 5.407662 12.255234c1.023936 5.11968 1.567902 11.51928 1.567902 19.134805s-0.575964 14.015124-1.727892 19.134804a29.086182 29.086182 0 0 1-5.535654 12.351228 20.894694 20.894694 0 0 1-10.07937 6.655584 52.47672 52.47672 0 0 1-15.67902 1.983876zM61.724142 852.610712h-18.462846v-55.548528h18.462846c7.391538 0 13.567152 0.447972 18.494844 1.27992a29.886132 29.886132 0 0 1 12.095244 4.575714 17.91888 17.91888 0 0 1 6.687582 8.511468c1.311918 3.51978 1.983876 7.967502 1.983876 13.407162 0 5.11968-0.671958 9.503406-1.983876 13.055184a17.854884 17.854884 0 0 1-6.71958 8.63946 31.230048 31.230048 0 0 1-12.191238 4.671708 102.297606 102.297606 0 0 1-18.366852 1.407912z"  horiz-adv-x="1152" />
      
      <glyph glyph-name="chuanzhenji" unicode="&#59120;" d="M665.867192 896c34.87891 0 68.637855-12.671604 94.845036-35.582888l54.07831-47.262523A143.419518 143.419518 0 0 0 863.973001 704.96597v-177.27446c0-4.927846 4.063873-8.95972 8.991719-8.95972H1007.968501c79.549514 0 143.9955-64.349989 143.9955-143.739509v-467.057404c0-19.871379-16.095497-35.934877-35.998875-35.934877h-215.99325A35.934877 35.934877 0 0 0 863.973001-92.033124v161.658948a18.047436 18.047436 0 0 1-18.015437 17.983438H306.006437a18.047436 18.047436 0 0 1-17.983438-17.983438v-161.658948C287.991-111.904503 271.895503-127.968001 251.992125-127.968001h-215.99325A35.934877 35.934877 0 0 0 0-92.033124V375.02428a143.835505 143.835505 0 0 0 143.9955 143.739509h135.003781A9.023718 9.023718 0 0 1 287.991 527.69151V896z m144.091497-844.325615c9.91969 0 18.015437-8.095747 18.015437-17.951439v-125.75607c0-19.871379-16.095497-35.934877-35.998875-35.934877h-431.986501a35.934877 35.934877 0 0 0-35.998875 35.934877v125.75607c0 9.855692 8.095747 17.951439 18.015437 17.951439h467.953377zM198.009812 375.02428c-29.791069 0-53.982313-24.127246-53.982313-53.886316 0-29.75907 24.191244-53.886316 54.014312-53.886316 29.791069 0 53.982313 24.127246 53.982313 53.886316 0 29.75907-24.191244 53.886316-54.014312 53.886316zM647.979751 824.130246h-287.991001V375.056279h431.986501V662.471298h-107.996625a35.934877 35.934877 0 0 0-35.998875 35.934877v125.75607z m107.996625-323.349895v-71.837755h-359.988751v71.837755h359.988751z m0 125.75607v-71.869754h-359.988751V626.56842h359.988751z m-143.9955 107.772632v-71.837755h-215.993251V734.309053h215.993251z m107.996625 66.23793v-61.75807c0-2.431924 2.015937-4.47986 4.47986-4.47986h67.51789v3.391894L719.977501 800.578982z"  horiz-adv-x="1152" />
      
      <glyph glyph-name="dayinji" unicode="&#59121;" d="M804.576 164.576v-219.424A73.152 73.152 0 0 0 731.424-128H292.576a73.152 73.152 0 0 0-73.152 73.152v219.424h585.152zM146.24 603.424v-73.152H877.76V603.424h73.12A73.152 73.152 0 0 0 1024 530.272v-512a73.152 73.152 0 0 0-73.152-73.12H877.76v292.576H146.24v-292.576H73.152A73.152 73.152 0 0 0 0 18.24v512a73.152 73.152 0 0 0 73.152 73.152H146.24z m731.456-146.272H658.24V384h219.456v73.152zM731.424 896a73.152 73.152 0 0 0 73.152-73.152v-219.424H219.424V822.848A73.152 73.152 0 0 0 292.576 896z"  horiz-adv-x="1024" />
      
      <glyph glyph-name="chuankoushebei" unicode="&#59122;" d="M960 192a96 96 0 0 0 93.76-116.544l-28.032-128A96 96 0 0 0 931.968-128H595.488a96 96 0 0 0-93.76 75.456l-28.096 128A96 96 0 0 0 567.392 192h392.64zM308.288 893.024v-1018.048H125.024a96 96 0 0 0-96 96V797.024a96 96 0 0 0 96 96h183.264z m616.32-878.816h-6.144a32 32 0 0 1-31.808-28.256l-0.192-3.744v-7.104a32 32 0 0 1 28.256-31.776l3.744-0.224h6.144a32 32 0 0 1 31.776 28.288l0.224 3.712v7.104a32 32 0 0 1-32 32z m-105.216 0h-6.144a32 32 0 0 1-31.776-28.256l-0.224-3.744v-7.104a32 32 0 0 1 28.256-31.776l3.744-0.224h6.144a32 32 0 0 1 31.776 28.288l0.224 3.712v7.104a32 32 0 0 1-32 32z m-105.216 0h-6.144a32 32 0 0 1-31.776-28.256l-0.224-3.744v-7.104a32 32 0 0 1 28.288-31.776l3.712-0.224h6.144a32 32 0 0 1 31.776 28.288l0.224 3.712v7.104a32 32 0 0 1-32 32z m-105.184 0h-6.144a32 32 0 0 1-31.776-28.256l-0.224-3.744v-7.104a32 32 0 0 1 28.256-31.776l3.744-0.224h6.144a32 32 0 0 1 31.776 28.288l0.224 3.712v7.104a32 32 0 0 1-32 32z m368.192 106.688h-6.112a32 32 0 0 1-31.808-28.288l-0.192-3.712v-7.104a32 32 0 0 1 28.256-31.808l3.744-0.192h6.112a32 32 0 0 1 31.808 28.256l0.192 3.744v7.104a32 32 0 0 1-32 32z m-105.184 0h-6.144a32 32 0 0 1-31.776-28.288l-0.224-3.712v-7.104a32 32 0 0 1 28.256-31.808l3.744-0.192h6.144a32 32 0 0 1 31.776 28.256l0.224 3.744v7.104a32 32 0 0 1-32 32z m-105.216 0h-6.144a32 32 0 0 1-31.776-28.288l-0.224-3.712v-7.104a32 32 0 0 1 28.288-31.808l3.712-0.192h6.144a32 32 0 0 1 31.776 28.256l0.224 3.744v7.104a32 32 0 0 1-32 32z m-105.216 0h-6.112a32 32 0 0 1-31.808-28.288l-0.192-3.712v-7.104a32 32 0 0 1 28.256-31.808l3.744-0.192h6.112a32 32 0 0 1 31.808 28.256l0.192 3.744v7.104a32 32 0 0 1-32 32z m-105.184 0h-6.144a32 32 0 0 1-31.776-28.288l-0.224-3.712v-7.104a32 32 0 0 1 28.256-31.808l3.744-0.192h6.144a32 32 0 0 1 31.776 28.256l0.224 3.744v7.104a32 32 0 0 1-32 32zM957.024 893.024a96 96 0 0 0 96-96v-469.568h-279.296V893.024z m-276.384 0v-565.568h-279.264V893.024h279.264z m279.296-226.24h-93.12V610.24h93.12V666.784z m-372.384 0h-93.088V610.24h93.12V666.784z m-372.352 0h-93.12V610.24h93.12V666.784z m744.736 113.12h-93.12v-56.576h93.12V779.904z m-372.384 0h-93.088v-56.576h93.12V779.904z m-372.352 0h-93.12v-56.576h93.12V779.904z"  horiz-adv-x="1056" />
      
      <glyph glyph-name="kaoqinjiyumenjin" unicode="&#59123;" d="M646.72 896a108.096 108.096 0 0 0 107.808-107.776v-80.864H646.72a187.456 187.456 0 0 1-188.64-188.608v-269.504a187.456 187.456 0 0 1 188.64-188.608h107.776v-80.864A108.096 108.096 0 0 0 646.72-128H107.776A108.096 108.096 0 0 0 0-20.224V788.224A108.096 108.096 0 0 0 107.776 896z m269.504-269.472A108.096 108.096 0 0 0 1024 518.72v-269.504a108.096 108.096 0 0 0-107.776-107.776H646.72a108.096 108.096 0 0 0-107.808 107.776v269.504a108.096 108.096 0 0 0 107.808 107.776z m-129.376-234.432a18.432 18.432 0 0 1-18.848-18.88c0-53.888-8.096-105.088-21.568-156.288-2.688-5.376 0-21.568 16.192-21.568 8.064 0 13.44 5.408 16.16 13.472 8.064 35.04 21.568 91.616 26.944 164.384a18.432 18.432 0 0 1-18.88 18.88z m-8.064 61.952c-45.824 0-75.456-35.008-75.456-75.424 0-35.04-2.688-70.08-10.784-105.12-2.688-10.752 2.688-18.88 13.472-21.536 10.784-2.72 18.88 2.688 21.568 13.44 8.064 37.76 10.784 75.488 10.784 113.216 0 18.88 16.16 37.728 40.416 37.728 24.256 0 43.104-18.88 43.104-40.448 0-35.008-2.688-70.08-8.064-105.088-2.72-10.784 2.688-18.88 13.44-21.568 16.192-2.688 21.568 10.784 21.568 13.504 8.096 37.696 10.784 75.424 8.096 115.84-2.688 40.448-35.04 75.456-78.144 75.456z m5.376 56.608c-13.44 0-24.256 0-35.008-2.688-10.784-2.72-16.192-10.784-13.504-21.568 2.72-10.784 10.784-16.16 21.568-13.472 8.096 2.688 16.16 2.688 24.256 2.688 56.576-2.688 102.4-45.792 102.4-99.712 0-26.944-2.688-56.576-5.376-83.52 0-8.096 5.376-18.88 16.16-18.88 10.784 0 18.88 8.096 18.88 16.192 2.688 29.632 5.376 59.264 8.064 86.208-2.688 72.768-61.984 134.72-137.44 134.72z m-86.208-40.416c-8.096 5.376-18.88 5.376-24.256-2.688-18.88-24.256-29.664-53.92-29.664-83.552 2.72-29.632 0-56.576-5.376-83.52-2.688-10.784 2.688-18.88 13.44-21.568 16.192-2.688 21.6 10.784 21.6 13.44 5.376 29.664 8.064 59.296 5.376 94.336 0 21.568 8.096 43.136 21.568 59.296 5.376 8.064 5.376 18.88-2.688 24.256z m269.44-43.136c-2.688 10.784-10.752 16.192-21.536 13.472-10.784-2.688-16.16-10.752-13.472-21.536 2.688-16.192 2.688-26.944 2.688-45.824-2.688-10.784 5.376-18.88 16.16-18.88 10.784 0 18.88 5.44 18.88 16.192 0 16.16 0 32.32-2.688 56.576z m-185.92 150.912c-51.2 0-99.712-18.88-134.72-53.888a190.72 190.72 0 0 1-51.2-129.344v-16.16c0-10.784 5.376-18.88 16.16-18.88 10.784 0 18.88 5.408 18.88 16.16v16.192c-2.72 37.728 13.44 75.456 40.384 102.4 26.976 29.632 67.392 43.104 107.808 43.104 51.2 0 99.712-24.256 129.344-67.36 5.376-8.096 16.16-10.784 24.256 0a17.536 17.536 0 0 1 5.376 24.256c-35.008 51.2-94.304 83.52-156.288 83.52z m-633.28-86.24c-21.536 0-40.416-18.88-40.416-40.416 0-21.536 18.88-40.416 40.448-40.416 21.536 0 40.416 18.88 40.416 40.416 0 21.568-18.88 40.416-40.416 40.416z"  horiz-adv-x="1024" />
      
      <glyph glyph-name="saomiaoyi" unicode="&#59124;" d="M681.77509 883.946905c14.682123-14.970007 15.673726-38.608545 2.910834-54.730091l-2.910834-3.326668L171.931187 305.330532h751.699085c53.290667 0 96.857227-42.54297 99.800049-96.089534l0.159936-5.757695v-183.38259c0-54.314257-41.711302-98.712484-94.298251-101.71928l-5.661734-0.159936h-30.003989v-5.117951c0-22.486998-17.912829-40.719699-39.983994-40.7197a40.303866 40.303866 0 0 0-39.760083 36.593352l-0.191924 4.158335v5.117951H209.963962v-5.117951c0-22.518985-17.912829-40.751687-39.983994-40.751687a40.303866 40.303866 0 0 0-39.792071 36.593352l-0.191923 4.158335v5.117951h-30.003989c-53.290667 0-96.857227 42.478995-99.800049 96.057547L0.032 20.068726V203.451316c0.063974 26.549372 10.26789 51.915218 28.308668 70.81965l4.67013 4.574169 3.006797 3.038783L624.773908 883.946905a39.760084 39.760084 0 0 0 57.001182 0z m172.922777-782.342818H799.711878l-4.094361-0.223911a40.463802 40.463802 0 0 1-35.889633-40.527776c0-22.518985 17.912829-40.751687 39.983994-40.751687h54.985989l4.094361 0.191924a40.463802 40.463802 0 0 1 35.889632 40.559763c0 22.486998-17.912829 40.751687-39.983993 40.751687z m-154.945974 0h-18.00879l-4.062374-0.223911a40.463802 40.463802 0 0 1-35.889633-40.527776c0-22.518985 17.912829-40.751687 39.983994-40.751687h17.976803l4.094361 0.191924a40.463802 40.463802 0 0 1 35.889633 40.559763c0 22.486998-17.912829 40.751687-39.983994 40.751687z m-117.968775 0h-17.976804l-4.094361-0.223911a40.463802 40.463802 0 0 1-35.889633-40.527776c0-22.518985 17.912829-40.751687 39.983994-40.751687h18.008791l4.062374 0.191924a40.463802 40.463802 0 0 1 35.889633 40.559763c0 22.486998-17.912829 40.751687-39.983994 40.751687z m274.897955 297.448927c22.071165 0 39.983994-18.232701 39.983994-40.751687 0-21.111549-15.7377-38.448609-35.889633-40.527776l-4.094361-0.22391h-479.807927c-10.587762 0-20.791677 4.286284-28.276681 11.931224a41.135533 41.135533 0 0 0-11.707313 28.820462c0 21.111549 15.7377 38.448609 35.889633 40.527777l4.094361 0.22391h479.807927z"  horiz-adv-x="1024" />
      
      <glyph glyph-name="shexiangtou" unicode="&#59125;" d="M512 896c247.04 0 448-195.68 448-436.16 0-169.728-100.16-317.024-246.208-389.376l82.496-138.56c7.328-12.32 7.328-27.392 0-39.68-7.36-12.288-20.8-19.84-35.232-19.84L269.44-128c-14.464 0-27.904 7.52-35.232 19.84a38.496 38.496 0 0 0 0 39.648l80.832 136.576C166.624 139.264 64 288.128 64 459.84 64 700.32 264.96 896 512 896z m0-237.92c-112.192 0-203.648-88.992-203.648-198.24s91.456-198.272 203.648-198.272 203.648 89.024 203.648 198.272c0 109.248-91.456 198.24-203.648 198.24z m0-79.296c67.488 0 122.176-53.248 122.176-118.944s-54.72-118.976-122.176-118.976c-67.488 0-122.176 53.28-122.176 118.976S444.544 578.784 512 578.784z m0 181.792c-22.496 0-40.736-17.728-40.736-39.648 0-21.792 18.336-39.648 40.736-39.648s40.736 17.856 40.736 39.68c0 21.76-18.336 39.616-40.736 39.616z"  horiz-adv-x="1024" />
      
      <glyph glyph-name="wangluoshexiangtou" unicode="&#59126;" d="M240.51189 13.888551c22.975986-14.399991 47.071971-26.975983 72.287955-37.599976A505.855684 505.855684 0 0 1 511.99972-63.9994c69.183957 0 136.191915 13.503992 199.295875 40.191975 25.215984 10.719993 49.279969 23.199986 72.319955 37.599976a31.99998 31.99998 0 0 0 34.015979-54.207966A573.631641 573.631641 0 0 0 511.96772-127.99936c-112.31993 0-216.991864 32.09598-305.599809 87.679945a31.99998 31.99998 0 1 0 34.111979 54.207966zM511.99972 896c247.391845 0 447.99972-200.607875 447.99972-447.99972s-200.607875-447.99972-447.99972-447.99972S64 200.608435 64 448.00028 264.607875 896 511.99972 896z m0-223.99986a223.99986 223.99986 0 1 1 0-447.99972 223.99986 223.99986 0 0 1 0 447.99972z m0-63.99996c42.687973 0 82.879948-16.60799 113.087929-46.911971A158.591901 158.591901 0 0 0 671.99962 448.00028c0-42.687973-16.60799-82.879948-46.911971-113.087929A158.591901 158.591901 0 0 0 511.99972 288.00038a158.591901 158.591901 0 0 0-113.087929 46.911971A158.591901 158.591901 0 0 0 351.99982 448.00028c0 42.687973 16.60799 82.879948 46.911971 113.087929A158.591901 158.591901 0 0 0 511.99972 608.00018z m0 175.99989a47.99997 47.99997 0 1 1 0-95.99994 47.99997 47.99997 0 0 1 0 95.99994z"  horiz-adv-x="1024" />
      
      <glyph glyph-name="wangluodayinji" unicode="&#59127;" d="M810.016 256c9.888 0 17.984-8.224 17.984-18.272v-329.152c0-20.224-16.096-36.576-36-36.576h-432c-19.904 0-36 16.32-36 36.576V237.728c0 10.048 8.096 18.272 18.016 18.272z m-54.016-73.152h-360v-228.576c0-5.024 4.064-9.12 8.992-9.12h342.016a9.088 9.088 0 0 1 8.992 9.12v228.576z m-36-128v-73.12h-288v73.12h288zM665.888 896c34.88 0 68.64-12.928 94.848-36.224l54.08-48.128A147.136 147.136 0 0 0 864 701.6v-34.176c0-5.024 4.064-9.152 8.992-9.152H1008c79.552 0 144-65.472 144-146.272v-402.272c0-20.256-16.096-36.576-36-36.576h-216c-19.904 0-36 16.32-36 36.576V274.24a18.208 18.208 0 0 1-18.016 18.304H306.016A18.208 18.208 0 0 1 288 274.24v-164.544c0-20.256-16.096-36.576-36-36.576h-216c-19.904 0-36 16.32-36 36.576V512c0 80.8 64.448 146.272 144 146.272h135.008A9.088 9.088 0 0 1 288 667.424V896zM720 146.272v-73.12h-288V146.24h288zM197.984 512c-29.792 0-53.984-24.576-53.984-54.848 0-30.304 24.192-54.88 54.016-54.88 29.792 0 53.984 24.576 53.984 54.88 0 30.272-24.192 54.848-54.016 54.848zM648 822.848h-288v-274.272h432V658.24h-108c-19.904 0-36 16.352-36 36.576v128z m72-24V736c0-2.528 2.016-4.576 4.48-4.576h67.52v3.424l-72 64z"  horiz-adv-x="1152" />
      
      <glyph glyph-name="tezhongshebei" unicode="&#59128;" d="M672.416 844.384c150.912-266.88 308.32-540.416 465.824-814.848 40.544-68.832-14.176-157.472-89.632-157.472V-128H103.776C21.76-128-26.24-39.36 15.2 29.536c157.44 273.472 314.88 540.48 472.384 814.848 41.472 68.8 143.296 68.8 184.832 0z m-5.44-346.56h-188.864L403.2 236.48h166.08l-113.856-250.72 293.376 319.712h-188.928l107.232 192.32h-0.096z"  horiz-adv-x="1152" />
      
      <glyph glyph-name="huanjingjiance" unicode="&#59129;" d="M1109.372338 525.686676c17.979792 0 32.312437-3.679139 39.510752-22.010848 7.166323-18.331709 0-31.160706-12.573058-43.989703-39.47876-42.16613-53.843397-95.337685-66.416454-150.332813-16.156218-66.000552-32.312437-133.824677-50.260236-199.825228-5.374742-21.978856-17.947799-42.16613-26.937695-62.321413-53.843397-102.66397-141.822805-150.332813-251.30118-163.16181-52.051817-5.502712-104.135626-1.823573-152.604281 20.155282-16.156218 7.358278-30.520856 16.508136-46.677074 27.51356-10.749484-27.51356-21.53096-55.02712-37.687179-58.674266-14.364638-3.647146-32.312437 5.502712-37.687179 20.155282-1.791581 5.534705-5.406734 14.684563-3.583161 20.155283 7.166323 42.198123 17.915807 62.385398 25.114121 75.182402 43.093913 87.979407 105.895214 155.835525 184.916718 210.830653 30.488864 20.155282 61.00972 38.486992 98.728892 40.310564 19.73938 1.855566 30.488864 18.363702 30.488863 38.518985-1.791581 18.331709-16.156218 33.016272-34.104017 31.160706-25.114122-3.647146-52.051817-9.149858-75.374358-18.331709-80.781092-36.663418-143.646378-98.984831-197.457782-168.664522-10.781476-10.973432-21.562953-25.657994-34.136011-43.989704-12.541065 58.674267-7.166323 111.845821 12.573058 163.16181 23.354534 62.321413 66.416454 108.13469 122.083424 144.830101 84.364253 56.818701 177.718403 89.834973 274.655714 111.813828a1048.810513 1048.810513 0 0 0 238.728123 27.51356zM436.217898-7.788457c-16.156218-38.486992-25.146114-77.005976-25.146114-111.845821H235.144961c-30.488864 0-55.634978 22.010848-55.634978 49.524408v12.797005c0 27.51356 25.146114 49.524408 55.666971 49.524408zM955.392378 896C994.199295 896 1023.760376 864.839294 1023.760376 826.352302v-260.323068c-51.731892-5.502712-105.319349-12.86099-157.083233-23.834421-68.367998-14.684563-127.490159-33.016272-181.077616-56.850694v278.654778a24.378294 24.378294 0 0 1-24.026376 23.834421 24.378294 24.378294 0 0 1-24.026377-23.834421v-304.312772c-20.347237-11.005424-40.662482-22.010848-60.977727-34.839846-22.170811-14.65257-42.518048-29.337133-59.154154-45.813276V665.014065a24.378294 24.378294 0 0 1-23.994384 23.834421 24.378294 24.378294 0 0 1-24.058369-23.834421v-339.152617a291.29182 291.29182 0 0 1-27.705515-53.171554c-22.170811-56.818701-25.881942-115.492967-12.924975-177.814381l5.534705-23.834421H70.191571C31.448639 71.041092 0 102.201798 0 138.865217V826.352302C0 864.839294 31.416647 896 70.223563 896zM158.938798 593.510801a24.378294 24.378294 0 0 1-24.026376-23.834421v-267.649353c0-12.828997 11.069409-23.834421 23.994384-23.834421 12.956967 0 24.026376 11.005424 24.026376 23.834421V569.67638a24.378294 24.378294 0 0 1-23.994384 23.834421z m168.152642 144.830101a24.378294 24.378294 0 0 1-24.026376-23.834421v-412.479454c0-12.828997 11.069409-23.834421 23.994384-23.834421 12.956967 0 24.058369 11.005424 24.058368 23.834421V714.506481a24.378294 24.378294 0 0 1-24.026376 23.834421z"  horiz-adv-x="1152" />
      
      <glyph glyph-name="yitihuashipinhuiyizhongduan" unicode="&#59130;" d="M274.657758 741.972851c23.25602-31.157309 44.432754-61.163013 63.594179-90.081091 15.450698-23.288009 30.069682-46.608008 43.824963-69.832039a125.013105 125.013105 0 0 0-7.261509-137.904682l-34.804057-46.703974a5.022277 5.022277 0 0 1-0.447847-5.310178c15.994512-31.093331 39.730368-62.954399 71.463479-95.391269 32.468859-33.236596 65.353576-58.955771 98.622161-77.413438 1.727407-0.895693 3.838683-0.767737 5.374156 0.447847l45.104523 35.123948a117.751596 117.751596 0 0 0 134.801746 7.357475c21.880492-13.531357 44.496732-28.374264 67.816731-44.56071a1945.732371 1945.732371 0 0 0 87.106111-64.169982 90.273025 90.273025 0 0 0 17.913854-122.645917l-1.503484-2.047297-0.543814-0.767737c-83.939198-109.978264-170.853376-163.975736-261.350324-154.698919-116.248112 11.899917-261.190379 108.506769-380.349493 230.416938l-5.342167 5.470123C104.252228 228.069184 19.097447 364.438392 2.079287 487.660112-11.420081 585.802437 41.265841 676.395352 151.947863 758.127308l3.102935 2.27122a85.602628 85.602628 0 0 0 119.60696-18.425677zM757.819973 896c41.489764 0 56.524605-4.414485 71.687402-12.699642 15.162797-8.317146 27.094703-20.472975 35.187926-36.019641l0.863704-1.727407c7.421454-14.714951 11.420081-30.13366 11.548038-69.320215v-110.458099c0-42.481424-4.318518-57.900133-12.411742-73.382821a85.53865 85.53865 0 0 0-35.187926-36.01964l-1.663429-0.927682c-14.395061-7.517421-29.461891-11.612016-67.752752-11.771961h-175.427807c-41.489764 0-56.524605 4.414485-71.687402 12.699643a85.570639 85.570639 0 0 0-35.187926 36.01964l-0.927682 1.759397c-7.357475 14.682962-11.356103 30.165649-11.516048 69.256236V773.961874c0 42.417446 4.318518 57.836155 12.475719 73.318843A85.53865 85.53865 0 0 0 512.943996 883.300358l1.727407 0.927681c14.331083 7.54941 29.429902 11.644005 67.624797 11.771961h175.491784z m230.640861-54.349351c10.396433-1.055638 19.897173-6.269849 26.390945-14.459039 5.694046-7.165541 8.828971-16.154457 8.828971-25.367296v-164.071703a39.666389 39.666389 0 0 0-39.186555-40.114236c-9.084883 0-17.849875 3.230891-24.791493 9.084883l-38.386829 32.11698a72.071271 72.071271 0 0 0-25.591219 55.277033v51.182438c0 21.432646 9.404773 41.713687 25.591219 55.277033L959.670713 832.7577c7.997256 6.717695 18.3617 9.948586 28.758132 8.892949z"  horiz-adv-x="1024" />
      
      <glyph glyph-name="wuxianluyouqi" unicode="&#59131;" d="M576 644.8c19.904 0 36-17.248 36-38.624v-347.776c0-21.344 16.096-38.624 36-38.624h486.016c9.888 0 17.984-8.704 17.984-19.328v-309.12c0-10.624-8.096-19.328-18.016-19.328H18.016C8.096-128 0-119.296 0-108.672v309.12c0 10.624 8.096 19.328 18.016 19.328H504c19.904 0 36 17.28 36 38.624V606.176c0 10.624 4.064 20.288 10.56 27.296 6.528 7.04 15.552 11.36 25.44 11.36z m234.016-540.96c-29.824 0-54.016-25.952-54.016-57.952 0-32 24.192-57.952 54.016-57.952 29.792 0 53.984 25.952 53.984 57.952 0 32-24.192 57.952-54.016 57.952z m144 0c-29.824 0-54.016-25.952-54.016-57.952 0-32 24.192-57.952 54.016-57.952 29.792 0 53.984 25.952 53.984 57.952 0 32-24.192 57.952-54.016 57.952z m-414.016-19.296H144v-77.312h396v77.312z m126.016 0c-19.936 0-36-17.28-36-38.656 0-21.376 16.064-38.656 36-38.656 19.904 0 36 17.28 36 38.656 0 21.376-16.096 38.656-36 38.656zM992 896c55.456-86.944 87.968-192.128 87.968-305.504 0-115.456-33.632-222.432-91.136-310.336l-59.168 43.84a477.12 477.12 0 0 1 44.448 85.952 488.64 488.64 0 0 1 33.984 180.544c0 62.656-11.52 123.392-33.984 180.512-11.264 28.48-25.088 55.68-41.28 81.024zM159.968 896l59.296-43.968a469.056 469.056 0 0 1-41.28-81.024A488.16 488.16 0 0 1 144 590.496c0-62.688 11.36-123.296 33.856-180.416 12.032-30.4 26.88-59.168 44.448-85.984l-59.2-43.936c-57.344 87.776-91.104 194.88-91.104 310.336C72 703.872 104.512 809.056 160 896z m129.824-96.48l59.2-43.968a285.44 285.44 0 0 1-28.256-54.464 309.344 309.344 0 0 1-21.472-114.24c0-39.584 7.2-77.984 21.376-114.24a304 304 0 0 1 28.224-54.56l-59.2-43.936c-39.36 60.256-62.4 133.664-62.4 212.768 0 79.072 23.04 152.512 62.528 212.64z m567.904-3.264a388.8 388.8 0 0 0 60.288-209.376c0-77.664-22.272-149.76-60.288-209.408l-59.2 43.968c10.24 16.064 18.944 33.216 26.016 51.2a309.824 309.824 0 0 1 21.504 114.24 308.896 308.896 0 0 1-21.504 114.24 294.688 294.688 0 0 1-25.984 51.2z m-104.064-77.408A242.816 242.816 0 0 0 792 586.88a242.816 242.816 0 0 0-38.368-132l-59.168 43.968a162.4 162.4 0 0 1 25.536 88c0 31.904-8.992 62.336-25.536 88.064z m-355.264 0l59.168-43.936A162.4 162.4 0 0 1 432 586.88c0-31.904 8.992-62.336 25.536-88.032l-59.2-43.968A242.816 242.816 0 0 0 360 586.88c0 49.024 14.176 94.528 38.368 131.968z"  horiz-adv-x="1152" />
      
      <glyph glyph-name="yiliaoshebei" unicode="&#59132;" d="M951.84 657.216h-123.296l-20.32 139.616C799.872 854.272 754.88 896 701.344 896H322.656c-53.568 0-98.56-41.728-106.88-99.2l-20.352-139.584H72.16C32.288 657.216 0 622.144 0 578.88v-628.512C0-92.928 32.288-128 72.16-128h879.68C991.712-128 1024-92.928 1024-49.632V578.848c0 43.296-32.288 78.4-72.16 78.4z m-297.344-424.544h-106.432v-115.552c0-21.632-16.16-39.168-36.064-39.168s-36.064 17.536-36.064 39.168V232.64h-106.432c-19.904 0-36.064 17.6-36.064 39.2s16.16 39.168 36.064 39.168h106.432V426.56c0 21.632 16.16 39.2 36.064 39.2s36.064-17.6 36.064-39.2v-115.552h106.432c19.904 0 36.064-17.6 36.064-39.168 0-21.632-16.096-39.2-36.064-39.2zM268.48 657.216l18.496 127.392c2.72 19.072 17.92 33.12 35.68 33.056h378.624c17.856 0 32.832-13.92 35.68-33.056l18.496-127.36H268.512z"  horiz-adv-x="1024" />
      
      <glyph glyph-name="KVM" unicode="&#59133;" d="M930.912 896c51.2 0 93.12-57.6 93.12-128v-768c0-70.4-41.92-128-93.12-128H93.12C41.92-128 0-70.4 0 0V768c0 70.4 41.92 128 93.12 128zM156.672 576H96v-384h60.672v168.192h14.784L252.896 192H326.4l-105.024 205.824L322.368 576h-71.04l-79.872-147.744h-14.784V576z m243.52 0h-67.04l95.424-384h75.424l97.44 384h-63.104l-69.056-294.368h-2.4L400.224 576zM736 576h-98.624v-384h59.104v302.08h2.4l52.704-229.6h60.672l53.504 229.632h2.4V192H928V576h-95.808l-47.904-216.32h-2.4L735.968 576z"  horiz-adv-x="1024" />
      
      <glyph glyph-name="LEDzhanshiping" unicode="&#59134;" d="M930.912 896c51.2 0 93.12-57.6 93.12-128v-768c0-70.4-41.92-128-93.12-128H93.12C41.92-128 0-70.4 0 0V768c0 70.4 41.92 128 93.12 128zM171.904 576H96v-384h213.76v73.024H171.872V576z m399.52 0H359.68v-384h218.752v73.024h-142.848V353.6h125.856v70.272h-125.856v79.136h135.84V576z m187.776 0h-118.848v-384h118.848c25.28 0 48.352 3.04 69.184 9.12a123.52 123.52 0 0 1 53.44 31.264c14.784 14.752 26.208 34.4 34.176 58.944 8 24.512 12 55.424 12 92.672 0 39.84-4 72.32-12 97.376-8 25.088-19.392 44.64-34.208 58.656a115.264 115.264 0 0 1-53.44 28.48 285.024 285.024 0 0 1-56.672 7.296l-12.48 0.192z m-4-70.816c15.68 0 29.376-1.664 41.216-4.992 11.84-3.328 21.632-9.504 29.44-18.56 7.84-9.024 13.76-21.376 17.76-37.056 3.968-15.68 5.984-35.84 5.984-60.576 0-23.232-1.92-42.592-5.76-58.112-3.84-15.488-9.632-27.84-17.472-37.056a62.08 62.08 0 0 0-29.44-19.36 140.48 140.48 0 0 0-41.728-5.536h-38.944v241.248H755.2z"  horiz-adv-x="1024" />
      
      <glyph glyph-name="IPdianhua" unicode="&#59135;" d="M966.76208 895.488H520.01008L297.99408 896H79.27408a25.408 25.408 0 0 1-25.248-25.6s-49.568-471.744 0-972.8c0-14.144 11.328-25.6 25.28-25.6H966.73008a25.408 25.408 0 0 1 25.248 25.6V869.888c0 14.144-11.296 25.6-25.248 25.6zM363.53008-78.432a18.944 18.944 0 0 0-18.72-17.216c-0.576 0-1.152 0-1.792 0.064a19.04 19.04 0 0 0-16.96 20.8c42.208 454.112-6.08 916.704-6.528 921.28a18.944 18.944 0 0 0 16.64 20.992c11.936 1.568 19.584-6.464 20.704-16.832 0.512-4.704 49.184-471.104 6.656-929.088z m173.536 169.056h-67.744a20.16 20.16 0 0 0-20.064 20.32c0 11.2 8.96 20.288 20.064 20.288h67.744a20.16 20.16 0 0 0 20.032-20.288 20.16 20.16 0 0 0-20.032-20.32z m0 134.368h-67.744a20.16 20.16 0 0 0-20.064 20.288c0 11.2 8.96 20.32 20.064 20.32h67.744a20.16 20.16 0 0 0 20.032-20.32 20.16 20.16 0 0 0-20.032-20.288z m0 134.368h-67.744a20.16 20.16 0 0 0-20.064 20.288c0 11.2 8.96 20.32 20.064 20.32h67.744a20.16 20.16 0 0 0 20.032-20.32 20.16 20.16 0 0 0-20.032-20.288z m172.704-268.736h-67.712a20.16 20.16 0 0 0-20.032 20.32c0 11.2 8.96 20.288 20.032 20.288h67.712a20.16 20.16 0 0 0 20.032-20.288 20.16 20.16 0 0 0-20.032-20.32z m0 134.368h-67.712a20.16 20.16 0 0 0-20.032 20.288c0 11.2 8.96 20.32 20.032 20.32h67.712a20.16 20.16 0 0 0 20.032-20.32 20.16 20.16 0 0 0-20.032-20.288z m0 134.368h-67.712a20.16 20.16 0 0 0-20.032 20.288c0 11.2 8.96 20.32 20.032 20.32h67.712a20.16 20.16 0 0 0 20.032-20.32 20.16 20.16 0 0 0-20.032-20.288z m178.752-268.736h-67.744a20.16 20.16 0 0 0-20.032 20.32c0 11.2 8.96 20.288 20.032 20.288h67.744a20.16 20.16 0 0 0 20.064-20.288 20.16 20.16 0 0 0-20.064-20.32z m0 134.368h-67.744a20.16 20.16 0 0 0-20.032 20.288c0 11.2 8.96 20.32 20.032 20.32h67.744a20.16 20.16 0 0 0 20.064-20.32 20.16 20.16 0 0 0-20.064-20.288z m0 134.368h-67.744a20.16 20.16 0 0 0-20.032 20.288c0 11.2 8.96 20.32 20.032 20.32h67.744a20.16 20.16 0 0 0 20.064-20.32 20.16 20.16 0 0 0-20.064-20.288z m29.44 185.568c0-26.24-21.024-47.552-46.88-47.552H487.27408a47.264 47.264 0 0 0-46.88 47.552v221.76c0 26.24 21.024 47.552 46.88 47.552H871.05008c25.856 0 46.88-21.344 46.88-47.552v-221.76z"  horiz-adv-x="1024" />
      
      <glyph glyph-name="NVR" unicode="&#59136;" d="M1128 472.448c-14.4 9.28-33.6 9.28-48 0L960 397.952v102.4c0 51.2-43.2 93.12-96 93.12h-105.6c48 27.904 81.6 79.104 81.6 139.616C840 821.536 763.2 896 672 896s-168-74.464-168-162.88c0-60.544 33.6-111.744 81.6-139.68h-211.2c48 27.936 81.6 79.136 81.6 139.648C456 821.536 379.2 896 288 896S120 821.536 120 733.12c0-60.544 33.6-111.744 81.6-139.68H96c-52.8 0-96-41.888-96-93.088V-34.88C0-86.08 43.2-128 96-128h768c52.8 0 96 41.92 96 93.12v79.104l120-69.824c14.4-9.28 33.6-9.28 48 0 14.4 9.28 24 23.264 24 41.92V435.2c0 13.952-9.6 27.936-24 37.248zM216 733.088C216 770.336 249.6 802.912 288 802.912s72-32.576 72-69.824S326.4 663.264 288 663.264 216 695.84 216 733.12zM624 193.152L384 53.536c-9.6-4.672-14.4-4.672-24-4.672s-14.4 0-24 4.672c-14.4 9.28-24 23.264-24 41.888v279.264c0 18.624 9.6 32.576 24 41.92 14.4 9.28 33.6 9.28 48 0l240-139.648c14.4-9.312 24-23.296 24-41.92 0-18.592-9.6-32.576-24-41.888zM672 663.264c-38.4 0-72 32.576-72 69.824S633.6 802.912 672 802.912s72-32.576 72-69.824S710.4 663.264 672 663.264z"  horiz-adv-x="1152" />
      
      <glyph glyph-name="IPTV" unicode="&#59137;" d="M908.955171-54.490951c17.215909-5.023973 27.679853-24.159872 23.519875-43.16777-4.127978-18.975899-21.343887-30.911836-38.815794-26.879857a1292.473134 1292.473134 0 0 1-315.198325 32.639826 1278.873206 1278.873206 0 0 1-319.9663-35.80781 27.423854 27.423854 0 0 0-7.999958 0c-16.415913 0.319998-30.11184 13.855926-32.095829 31.679832-1.95199 17.855905 8.415955 34.559816 24.287871 39.135792a1337.624894 1337.624894 0 0 0 335.774216 37.791799 1359.352778 1359.352778 0 0 0 330.494244-35.391812z m-333.05423 138.463265c10.879942 0 19.839895-8.831953 21.247887-20.287892l0.191999-3.199983v-45.343759c0-12.959931-9.599949-23.487875-21.439886-23.487876-10.879942 0-19.839895 8.831953-21.247888 20.287893l-0.191999 3.199983V60.484439c0 12.959931 9.599949 23.487875 21.439887 23.487875zM70.175627 896C238.078735 875.520109 406.941838 865.536162 575.900941 866.176158 730.876117 865.568162 885.691295 873.888117 1039.802476 891.104026L1081.818253 896h14.175925c29.343844-0.095999 53.375716-24.799868 55.807703-56.255701l0.191999-5.023973V141.444009c-0.191999-31.99983-22.719879-58.239691-51.423727-60.831677l-4.575975-0.223999h-1.279994a4027.754603 4027.754603 0 0 1-518.813243 31.807831c-158.911156 0.543997-317.726312-8.319956-475.741473-26.591859l-43.071771-5.215972H55.999703c-29.375844 0-53.471716 24.735869-55.807704 56.223701L0 141.636008V834.752325C0 866.880155 22.62388 893.216015 51.391727 895.776001L55.999703 896h14.175924z m150.079203-255.99864H159.99915v-319.9983h60.25568V640.00136z m154.975177 0H281.278506v-319.9983h60.25568v98.687476h33.695821c19.295897 0 35.80781 1.91999 49.535736 5.759969 13.759927 3.83998 24.959867 10.239946 33.695821 19.135898 8.735954 8.895953 15.07192 20.479891 19.039899 34.815815 3.967979 14.271924 5.951968 31.871831 5.951969 52.79972 0 19.359897-1.79199 35.83981-5.375972 49.535737-3.551981 13.695927-9.50395 24.927868-17.823905 33.663821-8.319956 8.767953-19.423897 15.231919-33.279823 19.359897-11.903937 3.583981-26.27186 5.59997-43.103771 6.111968L375.230007 640.00136z m338.110203 0h-204.158915v-61.311674h72.159617V320.00306h59.839682V578.689686h72.159616V640.00136z m78.879581 0h-66.591646l94.719497-319.9983h74.943602L991.99473 640.00136h-62.623667L860.795427 394.690663h-2.367987L792.219791 640.00136zM367.294049 584.641654c10.047947 0 18.559901-0.895995 25.599864-2.751985 6.975963-1.82399 12.671933-4.895974 17.023909-9.215951 4.351977-4.287977 7.45596-9.983947 9.311951-17.05591 1.85599-7.039963 2.783985-15.679917 2.783985-25.823863 0-10.751943-0.959995-19.583896-2.783985-26.495859a36.223808 36.223808 0 0 0-9.311951-16.83191 35.455812 35.455812 0 0 0-16.86391-8.991953 110.079415 110.079415 0 0 0-25.759863-2.559986h-25.759863v109.759417h25.759863z"  horiz-adv-x="1152" />
      
      <glyph glyph-name="UPSzhuji" unicode="&#59138;" d="M819.2 896c42.368 0 76.8-28.608 76.8-64v-928c0-17.696-17.152-32-38.4-32H166.4C145.152-128 128-113.696 128-96V832C128 867.392 162.432 896 204.8 896z m-305.888-752h-2.496c-15.488 0-29.28-5.312-39.488-13.696-10.208-8.416-16.448-20-16.448-32.896 0-25.696 25.088-46.624 55.936-46.624h2.496c15.36 0 29.408 5.312 39.488 13.728 10.08 8.384 16.32 20 16.448 32.896 0 25.696-25.088 46.592-55.936 46.592z m-0.48 112h-1.664c-10.56 0-20.16-3.584-27.136-9.408a29.504 29.504 0 0 1-11.264-22.592c0-17.696 17.152-32 38.4-32h1.664c10.56 0 20.16 3.584 27.136 9.408a29.504 29.504 0 0 1 11.264 22.592c0 17.696-17.152 32-38.4 32z m209.888 256H300.544c-10.56 0-19.2-7.2-19.2-16v-160c0-8.8 8.64-16 19.2-16h422.176c10.56 0 19.2 7.2 19.2 16v160c0 8.8-8.64 16-19.2 16z m-62.4-64c2.624 0 4.8-1.792 4.8-4v-56c0-2.208-2.144-4-4.8-4H362.944c-2.624 0-4.8 1.792-4.8 4v56c0 2.208 2.176 4 4.8 4h297.376z m62.4 192H300.544c-10.56 0-19.2-7.2-19.2-16v-32c0-8.8 8.64-16 19.2-16h422.176c10.56 0 19.2 7.2 19.2 16v32c0 8.8-8.64 16-19.2 16z m0.48 128H301.024c-10.56 0-19.2-7.2-19.2-16v-32c0-8.8 8.64-16 19.2-16H723.2c10.56 0 19.2 7.2 19.2 16v32c0 8.8-8.64 16-19.2 16z"  horiz-adv-x="1024" />
      
      <glyph glyph-name="wulianshebei" unicode="&#59139;" d="M176.959171 259.296745c13.023939 6.559969 26.047878 3.263985 32.543847-6.59197l100.799527-170.6552c45.471787 13.119939 97.503543-3.263985 123.519421-49.215769 29.247863-52.511754 9.727954-118.175446-39.039817-147.711308-16.255924-9.823954-32.511848-13.119939-51.999756-13.119938-35.775832 0-71.519665 19.679908-91.039573 52.511754-25.983878 42.6558-16.223924 98.463538 19.519908 131.295384l-100.799527 170.6552c-6.46397 13.119939-3.199985 26.239877 6.527969 32.831847z m633.917028-173.951185c58.559726 0 110.559482-45.951785 110.559482-105.023508 0-59.103723-48.767771-108.319492-107.295497-108.319492a105.183507 105.183507 0 0 0-103.999513 85.3436h-198.30307c-13.023939 0-22.783893 6.559969-22.783893 19.679908 0 13.119939 9.759954 22.975892 22.783893 22.975892h195.039086a105.183507 105.183507 0 0 0 103.999512 85.3436z m0-42.6878c-35.743832 0-61.759711-29.535862-61.75971-62.335708 0-36.127831 29.279863-62.399708 61.75971-62.399707 35.775832 0 61.759711 29.567861 61.759711 62.399707 0 36.095831-25.983878 62.335708-61.759711 62.335708z m-416.09405-32.799846c-16.255924 29.535862-51.999756 39.359816-81.279619 22.975892-29.247863-16.415923-38.975817-52.511754-22.719893-82.047615 16.223924-29.567861 51.999756-39.391815 81.279619-22.975893 29.247863 16.383923 38.975817 52.479754 22.719893 82.047616zM953.947528 436.479914c32.479848 52.511754 97.503543 68.927677 146.271315 39.359816 48.767771-29.503862 68.25568-95.167554 35.775832-154.239278-19.519909-32.799846-55.263741-52.479754-91.039573-52.479754-9.759954 0-22.751893 3.263985-32.511848 6.52797l-100.799527-170.6552c-3.199985-6.559969-12.959939-9.855954-19.487909-9.855954-6.49597 0-9.727954 0-12.991939 3.295985-9.759954 6.559969-12.991939 22.975892-6.49597 32.831846l100.799528 170.6552c-13.023939 16.415923-22.783893 32.831846-29.279863 52.479754-9.759954 29.567861-3.263985 55.839738 9.759954 82.079615z m-284.894664-175.807176c-16.383923-53.27975-42.399801-98.879537-74.847649-132.095381a261.438775 261.438775 0 0 0-14.239934-0.607997v132.703378z m-107.743495 0v-132.35138a257.342794 257.342794 0 0 0-13.279938 1.087995c-31.199854 33.599843-56.063737 78.783631-71.679664 131.263385h84.959602z m239.198879 0a256.382798 256.382798 0 0 0-182.815143-129.375393c31.199854 32.959846 56.255736 77.535637 72.223661 129.375393z m-345.022383 0c15.03993-50.495763 38.655819-94.303558 68.15968-127.455402a256.510798 256.510798 0 0 0-172.159193 127.455402z m105.823504 117.471449v-96.671546h-90.623575a454.045872 454.045872 0 0 0-12.319943 96.671546h102.943518z m-123.83942 0c0.671997-32.575847 4.831977-64.959696 12.415942-96.671546h-108.639491A255.006805 255.006805 0 0 0 319.9985 378.176187z m250.622826 0a451.581883 451.581883 0 0 0-13.215938-96.671546h-94.911556v96.671546z m143.903325 0a255.198804 255.198804 0 0 0-21.2479-96.671546H695.676739c7.871963 31.679852 12.287942 64.0637 13.215938 96.671546zM238.750881 659.678868c6.49597 13.119939 22.751893 16.415923 32.511847 9.855954 12.991939-6.559969 16.255924-22.975892 9.759955-32.831847l-100.799528-170.6552c13.023939-16.415923 22.783893-32.831846 29.279863-52.479754 9.759954-29.567861 3.231985-59.103723-9.759954-82.079615-16.255924-26.239877-39.007817-42.6558-68.25568-45.951784-6.49597-3.263985-16.255924-3.263985-26.015878-3.263985-16.255924 0-35.743832 3.263985-51.999757 13.119938C30.687856 311.808498 11.199948 334.720391 4.703978 361.024268c-9.759954 29.535862-3.263985 55.807738 9.759954 82.047615 16.223924 22.975892 39.007817 42.6558 64.991696 49.247769 19.519909 3.263985 39.039817 3.263985 58.527725-3.295984z m835.452084-226.462939c-25.983878 16.415923-64.991695 6.591969-81.279619-22.943892-16.223924-26.271877-6.49597-65.663692 22.783893-82.079615 25.983878-16.383923 65.023695-6.559969 81.279619 22.975892 19.487909 29.535862 9.727954 65.663692-22.783893 82.047615z m-965.467475 16.415923c-6.527969 0-9.759954-3.263985-16.255923-3.263984-13.023939-6.559969-29.279863-16.415923-35.775833-29.535862-19.519909-29.535862-9.759954-65.663692 22.751894-85.3436 13.023939-9.855954 29.279863-9.855954 45.535786-6.559969 12.991939 6.559969 29.247863 16.415923 35.743833 29.535861 6.49597 13.119939 9.759954 29.535862 6.495969 49.21577-6.49597 13.119939-16.255924 29.535862-29.247863 36.12783-9.759954 6.559969-19.519909 9.823954-29.247863 9.823954z m452.573879 43.615796v-94.271558h-102.943518c0.639997 31.743851 4.575979 63.359703 11.775945 94.271558h91.199573z m-111.999475 0a455.005867 455.005867 0 0 1-11.839945-94.271558h-117.119451c1.823991 32.671847 9.983953 64.671697 23.935888 94.271558z m227.838932 0c6.975967-30.943855 10.65595-62.527707 11.071948-94.271558h-108.255493v94.271558z m130.559388 0c13.951935-29.599861 22.079897-61.599711 23.935888-94.271558h-122.559426a456.733859 456.733859 0 0 1-11.039948 94.271558zM755.644458 882.877822c25.983878 13.119939 55.263741 16.415923 81.279619 9.823953 29.247863-6.559969 48.735772-22.975892 64.991695-49.215769 16.255924-26.239877 19.519909-52.511754 9.759955-75.487646-3.263985-19.679908-12.991939-39.359816-29.247863-52.511754l100.767527-170.6552c6.49597-13.119939 3.231985-26.239877-6.495969-32.831846-6.49597-3.295985-9.759954-3.295985-13.023939-3.295985-6.49597 0-16.255924 3.295985-19.519909 9.855954l-100.735528 170.6552c-9.759954-3.263985-22.783893-6.559969-32.511847-6.559969-9.759954 0-16.255924 0-26.015878 3.295985-26.015878 6.559969-55.263741 22.975892-68.25568 49.215769-13.023939 26.239877-16.255924 55.807738-9.759954 82.047615 6.49597 29.567861 22.751893 52.511754 48.767771 65.663693z m-194.335089-243.19886v-125.631412h-85.695598c14.047934 48.319774 35.935832 90.495576 63.327703 123.359422 7.423965 1.055995 14.87993 1.823991 22.367895 2.23999z m73.407656-6.39997a256.446798 256.446798 0 0 0 161.919241-119.231442h-103.871513c-12.927939 46.015784-32.959846 86.719594-58.047728 119.199442zM579.997281 639.99896c10.111953-0.159999 20.255905-0.895996 30.335858-2.239989 26.783874-33.215844 48.127774-75.519646 61.631711-123.711421h-91.999569z m-65.919691-7.487965c-25.53588-32.09585-45.983784-72.54366-59.327722-118.463445h-99.423534a256.542797 256.542797 0 0 0 158.719256 118.463445zM339.518409 895.99776a105.183507 105.183507 0 0 0 104.031512-85.3436h198.30307c12.991939 0 22.751893-6.559969 22.751894-19.679908 0-13.119939-9.759954-22.975892-22.719894-22.975892h-195.071085a105.183507 105.183507 0 0 0-104.031513-85.3436c-58.527726 0-110.527482 45.951785-110.527482 105.023508C232.254911 846.781991 281.022683 895.99776 339.518409 895.99776z m3.263984-45.951785c-35.775832 0-61.759711-29.535862-61.75971-62.367707 0-32.799846 25.983878-62.335708 61.75971-62.335708 35.743832 0 61.759711 26.239877 61.759711 62.335708a62.015709 62.015709 0 0 1-61.759711 62.399707z m468.125806 0c-9.759954 0-19.519909-3.263985-29.279863-9.855953-16.255924-6.559969-25.983878-19.679908-29.247863-36.095831-3.263985-16.415923 0-29.535862 6.49597-45.951785 6.49597-16.415923 19.519909-26.239877 35.775832-29.535861 16.255924-3.263985 32.511848-3.263985 45.503787 6.559969 16.255924 6.559969 26.015878 19.711908 29.247863 36.127831 3.263985 16.383923 3.263985 32.799846-6.49597 45.919784-6.49597 16.415923-19.519909 26.271877-35.743832 29.567862-6.527969 3.263985-9.759954 3.263985-16.255924 3.263984z"  horiz-adv-x="1151" />
      
      <glyph glyph-name="mulufuwuqi" unicode="&#59096;" d="M863.104 896A161.056 161.056 0 0 0 1024 735.104v-702.208A161.056 161.056 0 0 0 863.104-128H160.896A161.056 161.056 0 0 0 0 32.896V735.104A161.056 161.056 0 0 0 160.896 896zM242.944 231.168h-6.08l-4-0.224a36.928 36.928 0 0 1 4-73.664h6.08l4.032 0.224a36.928 36.928 0 0 1-4.032 73.664z m533.984 0H416.096l-4.032-0.192a36.928 36.928 0 0 1 4.032-73.664h360.832l4.032 0.224a36.928 36.928 0 0 1-4.032 73.664z m-533.984 193.6h-6.08l-4-0.256a36.928 36.928 0 0 1 4-73.632h6.08l4.032 0.224a36.928 36.928 0 0 1-4.032 73.632z m533.984 0H416.096l-4.032-0.224a36.928 36.928 0 0 1 4.032-73.632h360.832l4.032 0.224a36.928 36.928 0 0 1-4.032 73.632zM242.944 624.032h-6.08l-4-0.224a36.928 36.928 0 0 1 4-73.632h6.08l4.032 0.192a36.928 36.928 0 0 1-4.032 73.664z m533.984 0H416.096l-4.032-0.224a36.928 36.928 0 0 1 4.032-73.632h360.832l4.032 0.192a36.928 36.928 0 0 1-4.032 73.664z"  horiz-adv-x="1024" />
      
      </font>
</defs>
</svg>
